<?xml version="1.0" encoding="UTF-8"?>
<svg width="59px" height="58px" viewBox="0 0 59 58" version="1.1" xmlns="http://www.w3.org/2000/svg" xmlns:xlink="http://www.w3.org/1999/xlink">
    <!-- Generator: Sketch 52.2 (67145) - http://www.bohemiancoding.com/sketch -->
    <title>hat</title>
    <desc>Created with Sketch.</desc>
    <g id="Page-1" stroke="none" stroke-width="1" fill="none" fill-rule="evenodd">
        <g id="Desktop-HD-Copy" transform="translate(-691.000000, -1452.000000)">
            <g id="Group-11" transform="translate(150.000000, 1398.000000)">
                <g id="Group-6" transform="translate(456.000000, 0.000000)">
                    <g id="Group-10" transform="translate(80.000000, 50.000000)">
                        <g id="hat" transform="translate(5.000000, 4.000000)">
                            <path d="M5.13680245,12.1384701 L8.8220562,13.3608979 L9.90431597,17.0897295 C10.0269631,17.5120309 10.3782818,17.8278585 10.8113654,17.9046815 C10.878754,17.9168113 10.9461425,17.9226517 11.013531,17.9226517 C11.3765305,17.9226517 11.7233568,17.7510356 11.9434926,17.4522798 L14.2445861,14.3245538 L18.1257157,14.4476502 C18.5673352,14.4615772 18.9739126,14.2248188 19.1805708,13.8371101 C19.3876782,13.4494015 19.3562302,12.9781311 19.1001538,12.6209719 L16.8367979,9.46584131 L18.1531205,5.81293406 C18.3018244,5.39916844 18.2034372,4.93688319 17.8983918,4.62060639 C17.5937956,4.30388036 17.1355538,4.18797204 16.7168463,4.32140141 L13.0167672,5.49845428 L9.94924154,3.11829158 C9.60196604,2.84873748 9.13159423,2.79976852 8.73669746,2.99160121 C8.34135145,3.18388313 8.08931841,3.58372165 8.08662281,4.02309488 L8.06326145,7.90602162 L4.85152446,10.0876128 C4.48807572,10.3347039 4.29624302,10.7664397 4.35644338,11.2017697 C4.41709308,11.6370995 4.71944289,12.000099 5.13680245,12.1384701 Z M9.862535,9.47482633 C10.1770148,9.26142943 10.3661519,8.90696571 10.3683982,8.52689449 L10.3814267,6.37675128 L12.0805159,7.69487086 C12.3806196,7.92803518 12.7759656,7.99856847 13.1385157,7.8831095 L15.1875762,7.23078859 L14.4588816,9.25424132 C14.3299448,9.61184975 14.3852035,10.009442 14.606687,10.3185307 L15.8601136,12.0656905 L13.710869,11.9978526 C13.3281022,11.9857228 12.9695952,12.1613822 12.7445175,12.4673261 L11.469976,14.1996604 L10.8702181,12.1344267 C10.7641935,11.769181 10.4856542,11.4798596 10.124901,11.3603573 L8.08392721,10.6833272 L9.862535,9.47482633 Z" id="Shape" fill="#FFFFFF" fill-rule="nonzero"></path>
                            <path d="M58.379127,29.6922819 L55.1318988,27.486431 L55.1080881,23.5608248 C55.1053926,23.1214516 54.8533595,22.7216131 54.4580135,22.5293311 C54.0631168,22.3374984 53.5927449,22.3864675 53.2459186,22.6560216 L50.1446987,25.0626904 L46.4037372,23.8721598 C45.9850299,23.7391797 45.5267878,23.8546387 45.2217425,24.1713649 C44.9171464,24.4880909 44.8183099,24.9499269 44.9674631,25.3636924 L46.2977127,29.0570328 L44.0096476,32.2467562 C43.7535712,32.6039154 43.7225724,33.0756351 43.9292307,33.4633437 C44.1363381,33.8510523 44.5433647,34.0882599 44.9845349,34.0734345 L48.908344,33.9494396 L51.2350451,37.1113091 C51.4547316,37.4100649 51.8015579,37.581681 52.1650066,37.581681 C52.231946,37.581681 52.2993345,37.5758406 52.3671723,37.5637107 C52.7998066,37.4868877 53.1511254,37.1710603 53.2737726,36.7487589 L54.3681621,32.9790448 L58.0942982,31.7431393 C58.5112086,31.6047682 58.8135584,31.2417687 58.8742081,30.8064388 C58.9344086,30.371109 58.7425759,29.9393731 58.379127,29.6922819 Z M53.0648681,30.9780549 C52.7041148,31.0980065 52.4255757,31.3873279 52.319551,31.7521244 L51.7081125,33.8586898 L50.4084125,32.0922118 C50.1900738,31.7957024 49.8445952,31.62184 49.478451,31.62184 C49.466321,31.62184 49.4537418,31.62184 49.4416118,31.6222892 L47.2492385,31.6914748 L48.5278234,29.909273 C48.7493071,29.6006335 48.8045656,29.2025919 48.6760782,28.8454328 L47.9325581,26.7815469 L50.0225009,27.4468964 C50.3850512,27.5619061 50.7803972,27.4913727 51.0805007,27.2586577 L52.8132843,25.914032 L52.8263127,28.1073038 C52.8290083,28.4873751 53.0181454,28.8418388 53.3321759,29.0552357 L55.1467243,30.2875472 L53.0648681,30.9780549 Z" id="Shape" fill="#FFFFFF" fill-rule="nonzero"></path>
                            <path d="M42.864492,55.8053347 L36.7006884,2.3478161 C36.5735486,1.25567285 35.8039717,0.369289166 34.74103,0.0889529084 C33.6780885,-0.190484893 32.5715689,0.201267057 31.9223928,1.08899854 L0.231367292,44.5676246 C0.0880543372,44.764399 0.0049418308,44.9998096 0.000449256823,45.2428575 C-0.0287524366,46.7424769 1.82218567,48.2326617 6.01375177,50.1262792 C9.73449683,51.8073983 14.8030124,53.5280519 20.2852933,54.9719633 C25.7680235,56.416324 31.0265747,57.4150219 35.0923489,57.7852096 C36.2586196,57.8912342 37.2793311,57.945145 38.1657148,57.945145 C40.8298078,57.945145 42.2746178,57.4559043 42.7714958,56.4185704 C42.8622457,56.2289839 42.8883025,56.0146884 42.864492,55.8053347 Z M40.2255573,52.4341115 C38.6266524,51.4610213 36.8974628,50.6963861 35.1687225,49.9865603 C33.3514787,49.2403448 31.5014392,48.5749955 29.6361248,47.9595136 C28.4788393,47.5776453 27.315264,47.2159935 26.1462978,46.8718628 L38.7196485,39.54089 L40.2255573,52.4341115 Z M33.7863593,2.45204368 C33.9009198,2.29525308 34.0487253,2.29435462 34.1525037,2.32175926 C34.256282,2.3491639 34.3847694,2.42239279 34.4076815,2.61557328 L35.2082571,9.47392788 L23.7809607,16.1364066 L33.7863593,2.45204368 Z M20.3746954,20.7951998 L35.5007234,11.9762883 L36.8179444,23.2562287 L24.1439602,30.645605 C23.5931713,30.9663743 23.407179,31.6735046 23.7283976,32.2242934 C24.0496162,32.7750822 24.7562972,32.9615238 25.3070861,32.6403052 L37.1104106,25.7585892 L38.4276316,37.0380803 L23.0500198,46.0038986 C22.6084003,45.8861933 22.1658824,45.7707343 21.7229151,45.6579709 C17.0232395,44.4580059 12.5320191,43.5976791 8.86832968,43.1928987 C8.39795776,43.1403356 7.92713661,43.0949607 7.455417,43.0558754 L17.3175028,37.3247061 C17.8687409,37.004386 18.0556318,36.297705 17.7353116,35.7464669 C17.4149915,35.1952287 16.7087597,35.0078886 16.1570724,35.3286581 L5.0146046,41.8033473 L20.3746954,20.7951998 Z M34.3910591,55.3938155 C30.5872015,54.9760067 25.7868924,54.0334658 20.8733705,52.7391569 C15.9602979,51.4452973 11.3181271,49.9007523 7.80179404,48.3908001 C4.36318226,46.9140929 3.0522508,45.9311191 2.56750277,45.4585008 C3.26474936,45.275204 4.00961711,45.2531905 4.72618177,45.2482487 C6.32059421,45.2361188 7.91635444,45.3938078 9.49684,45.5928286 C11.3194749,45.8223989 13.131777,46.1314876 14.9341952,46.4859512 C16.7509899,46.8431104 18.5583501,47.24834 20.3549281,47.6949013 C22.1658824,48.1455059 23.966953,48.6333988 25.7558936,49.1648696 C27.9087323,49.8046114 30.0453978,50.503655 32.1506153,51.2876081 C34.0415372,51.9915936 35.9216771,52.7544316 37.714661,53.6834948 C38.2277123,53.9494549 38.7340247,54.2306896 39.2223669,54.5406767 C39.6311906,54.8003472 40.0449561,55.0788865 40.3908838,55.4207709 C39.7363167,55.5932855 38.1109055,55.8026392 34.3910591,55.3938155 Z" id="Shape" fill="#1CD585" fill-rule="nonzero"></path>
                            <path d="M21.8797058,33.9710039 C21.8797058,34.6107456 21.3608142,35.1300865 20.7206231,35.1300865 C20.0804322,35.1300865 19.5615406,34.6107456 19.5615406,33.9710039 C19.5615406,33.330813 20.0804322,32.8119213 20.7206231,32.8119213 C21.3608142,32.8119213 21.8797058,33.330813 21.8797058,33.9710039 Z" id="Path" fill="#FFFFFF"></path>
                        </g>
                    </g>
                </g>
            </g>
        </g>
    </g>
</svg>