<?xml version="1.0" encoding="UTF-8"?>
<svg width="64px" height="66px" viewBox="0 0 64 66" version="1.1" xmlns="http://www.w3.org/2000/svg" xmlns:xlink="http://www.w3.org/1999/xlink">
    <!-- Generator: Sketch 52.2 (67145) - http://www.bohemiancoding.com/sketch -->
    <title>calendar-with-day-5</title>
    <desc>Created with Sketch.</desc>
    <g id="Page-1" stroke="none" stroke-width="1" fill="none" fill-rule="evenodd">
        <g id="Desktop-HD-Copy" transform="translate(-323.000000, -1211.000000)">
            <g id="Group-25" transform="translate(323.000000, 1210.000000)">
                <g id="calendar-with-day-5" transform="translate(0.000000, 1.000000)">
                    <path d="M58.7932098,3.01533659 L54.9660098,3.01533659 L54.9660098,1.95121951 C54.9660098,0.873678049 54.0924878,0 53.0147902,0 C51.9370927,0 51.0635707,0.873678049 51.0635707,1.95121951 L51.0635707,3.01533659 L40.9172293,3.01533659 L40.9172293,1.95121951 C40.9172293,0.873678049 40.0437073,0 38.9660098,0 C37.8883122,0 37.0147902,0.873678049 37.0147902,1.95121951 L37.0147902,3.01533659 L26.8684488,3.01533659 L26.8684488,1.95121951 C26.8684488,0.873678049 25.9949268,0 24.9172293,0 C23.8395317,0 22.9660098,0.873678049 22.9660098,1.95121951 L22.9660098,3.01533659 L12.8196683,3.01533659 L12.8196683,1.95121951 C12.8196683,0.873678049 11.9461463,0 10.8684488,0 C9.79075122,0 8.91722927,0.873678049 8.91722927,1.95121951 L8.91722927,3.01533659 L5.08987317,3.01533659 C2.29260488,3.01533659 0.016702439,5.29108293 0.016702439,8.08850732 L0.016702439,15.4675512 C0.016702439,17.5740878 1.30731707,19.3841951 3.13912195,20.1501659 L3.13912195,60.3708878 C3.13912195,63.1683122 5.41502439,65.4440585 8.21229268,65.4440585 L55.6706341,65.4440585 C58.4679024,65.4440585 60.7438049,63.1683122 60.7438049,60.3708878 L60.7438049,20.150322 C62.5757659,19.3843512 63.8663805,17.5742439 63.8663805,15.4677073 L63.8663805,8.08850732 C63.8663805,5.29123902 61.5907902,3.01533659 58.7932098,3.01533659 Z M3.91914146,8.08850732 C3.91914146,7.4428878 4.44425366,6.91777561 5.08987317,6.91777561 L8.91722927,6.91777561 L8.91722927,7.80472195 C8.91722927,8.88241951 9.79075122,9.75594146 10.8684488,9.75594146 C11.9461463,9.75594146 12.8196683,8.88241951 12.8196683,7.80472195 L12.8196683,6.91777561 L22.9660098,6.91777561 L22.9660098,7.80472195 C22.9660098,8.88241951 23.8395317,9.75594146 24.9172293,9.75594146 C25.9949268,9.75594146 26.8684488,8.88241951 26.8684488,7.80472195 L26.8684488,6.91777561 L37.0147902,6.91777561 L37.0147902,7.80472195 C37.0147902,8.88241951 37.8883122,9.75594146 38.9660098,9.75594146 C40.0437073,9.75594146 40.9172293,8.88241951 40.9172293,7.80472195 L40.9172293,6.91777561 L51.0635707,6.91777561 L51.0635707,7.80472195 C51.0635707,8.88241951 51.9370927,9.75594146 53.0147902,9.75594146 C54.0924878,9.75594146 54.9660098,8.88241951 54.9660098,7.80472195 L54.9660098,6.91777561 L58.7932098,6.91777561 C59.4389854,6.91777561 59.9639415,7.4428878 59.9639415,8.08850732 L59.9639415,15.4675512 C59.9639415,16.1131707 59.4389854,16.6382829 58.7932098,16.6382829 L5.08987317,16.6382829 C4.44425366,16.6382829 3.91914146,16.1131707 3.91914146,15.4675512 L3.91914146,8.08850732 Z M55.6709463,61.5417756 L8.21229268,61.5417756 C7.56667317,61.5417756 7.04156098,61.0166634 7.04156098,60.3710439 L7.04156098,20.540878 L56.841366,20.540878 L56.8413659,60.3710439 C56.841678,61.0166634 56.3164098,61.5417756 55.6709463,61.5417756 Z" id="Shape" fill="#1CD585" fill-rule="nonzero"></path>
                    <path d="M38.5278439,31.1937561 C39.6055415,31.1937561 40.4792195,30.320078 40.4792195,29.2425366 C40.4792195,28.1649951 39.6055415,27.2913171 38.5278439,27.2913171 L25.3553951,27.2913171 C24.2776976,27.2913171 23.4041756,28.1649951 23.4041756,29.2425366 L23.4041756,38.8547122 C23.4041756,39.9322537 24.2776976,40.8059317 25.3553951,40.8059317 L36.5766244,40.8059317 L36.5766244,47.584 L25.3553951,47.584 C24.2776976,47.584 23.4041756,48.457678 23.4041756,49.5352195 C23.4041756,50.612761 24.2776976,51.486439 25.3553951,51.486439 L38.5278439,51.486439 C39.6055415,51.486439 40.4792195,50.612761 40.4792195,49.5352195 L40.4792195,38.8547122 C40.4792195,37.7771707 39.6055415,36.9034927 38.5278439,36.9034927 L27.3066146,36.9034927 L27.3066146,31.1937561 L38.5278439,31.1937561 Z" id="Path" fill="#FFFFFF"></path>
                </g>
            </g>
        </g>
    </g>
</svg>