<?xml version="1.0" encoding="UTF-8"?>
<svg width="54px" height="61px" viewBox="0 0 54 61" version="1.1" xmlns="http://www.w3.org/2000/svg" xmlns:xlink="http://www.w3.org/1999/xlink">
    <!-- Generator: Sketch 52.2 (67145) - http://www.bohemiancoding.com/sketch -->
    <title>champagne-glass</title>
    <desc>Created with Sketch.</desc>
    <g id="Page-1" stroke="none" stroke-width="1" fill="none" fill-rule="evenodd">
        <g id="Desktop-HD-Copy" transform="translate(-921.000000, -1452.000000)">
            <g id="Group-11" transform="translate(150.000000, 1398.000000)">
                <g id="Group-5" transform="translate(684.000000, 0.000000)">
                    <g id="Group-12" transform="translate(80.000000, 50.000000)">
                        <g id="champagne-glass" transform="translate(7.000000, 4.000000)">
                            <path d="M24.7255435,6.66608353 L13.3477582,4.44619565 C12.8538893,4.34943951 12.3545177,4.57734381 12.1023098,5.01205837 C11.9321841,5.30553663 7.91428332,12.3068275 6.16717049,21.2615829 C5.76409641,23.3278533 5.58663386,25.3789911 5.62790418,27.329246 C5.64716375,28.8567085 5.8310462,30.3942595 6.17450744,31.882286 C6.27218077,32.304161 6.38590359,32.7228261 6.51521739,33.1359884 C7.48598842,36.235394 9.15331179,38.3530232 11.2755265,39.2279551 L8.81810468,52.4725373 L3.52586614,51.4398607 C2.18549598,51.1784817 0.802938209,51.9240998 0.29301973,53.1920177 C0.206810491,53.4070822 0.154534617,53.6294837 0.110512878,53.8560123 C0.0683253783,54.0706181 0.0220108696,54.2843071 0.00687840261,54.5030401 C-0.0412703217,55.1959239 0.16920853,55.8897248 0.587873583,56.4432065 C1.01479277,57.0076936 1.6425612,57.3974694 2.33682065,57.5332031 L15.2461957,60.0520721 C16.3655401,60.2703464 17.5522928,59.7728091 18.1942765,58.8323029 C18.3621094,58.5860564 18.4905061,58.3132134 18.5712127,58.0261549 C18.6702616,57.6748982 18.7505095,57.2942935 18.7683933,56.9297384 C18.8014096,56.2593241 18.5890964,55.5856997 18.1851053,55.0505605 C17.7600203,54.4879076 17.1272079,54.0944634 16.4347826,53.9591882 L11.1315388,52.9242188 L13.5898777,39.6759681 C15.7570312,39.65625 17.9640795,38.4575747 19.9404721,36.2087975 C20.1023438,36.0253736 20.2568784,35.8369056 20.4095788,35.6456862 C21.860462,33.8357507 23.0747283,31.5557915 23.9661685,28.9988621 C24.426104,27.6772928 24.7902004,26.320873 25.0579993,24.9474864 C26.8055707,15.9931895 25.7141984,7.99498984 25.6669667,7.65886555 C25.5968071,7.1613281 25.2189538,6.76238114 24.7255435,6.66608353 Z M16.3233526,56.4977752 C16.4132303,56.631216 16.4191916,56.7921705 16.3967221,56.9467051 C16.376087,57.0888587 16.3504076,57.2475203 16.2981319,57.3818784 C16.2027514,57.6295007 15.9661345,57.7909138 15.6974185,57.7386379 L2.78850201,55.219769 C2.63305033,55.189504 2.49685799,55.0877038 2.42165418,54.9487602 C2.31893679,54.7598335 2.37488114,54.5635699 2.41248299,54.3654721 C2.44641647,54.1875509 2.47209582,54.0119225 2.61333223,53.8839844 C2.73668478,53.7720958 2.91047897,53.7216542 3.07418478,53.7537534 L15.9835598,56.2726223 C16.1715692,56.3093071 16.277038,56.4294497 16.3233526,56.4977752 Z M13.7444123,6.9251699 L23.4269022,8.8144362 C23.6511379,11.0558764 24.1014436,17.5422045 22.7450237,24.4962636 C22.6368036,25.0506623 22.5111583,25.5958899 22.3731319,26.1319464 L7.98536011,26.1319464 C8.02387902,24.6994056 8.18804348,23.2132134 8.48060468,21.7128058 C9.83519022,14.7725034 12.6943105,8.91990489 13.7444123,6.9251699 Z M20.6393172,30.8707031 C20.0390625,32.0945992 19.3200408,33.2680536 18.4519871,34.3213655 C17.1863621,35.8584579 15.851036,36.8306047 14.5652344,37.1763587 C13.9172895,37.3483186 13.2363281,37.369871 12.5879246,37.1901155 C11.4947181,36.8856319 10.5399966,36.0400475 9.78704147,34.7840523 C8.91669494,33.3221638 8.45492533,31.6282439 8.20546881,29.9563349 C8.13255777,29.4698029 8.07936484,28.9796026 8.04222141,28.4889436 L21.6463145,28.4889436 C21.3537534,29.3001359 21.0203804,30.0971127 20.6393172,30.8707031 Z" id="Shape" fill="#1CD585" fill-rule="nonzero"></path>
                            <path d="M20.6778362,20.4577276 C20.714521,20.4609375 20.7507473,20.4627717 20.7865149,20.4627717 C21.3890625,20.4627717 21.903108,20.0028362 21.9590523,19.3911176 C22.1800781,16.9671705 22.2419837,14.4620584 22.1424763,11.9454823 C22.1163384,11.294786 21.5738621,10.7880775 20.9181216,10.8142154 C20.2674253,10.8398947 19.7611753,11.3878736 19.7868547,12.0385699 C19.8826936,14.4528873 19.8235395,16.8543648 19.6112263,19.1769701 C19.5520721,19.8253736 20.0298913,20.3985734 20.6778362,20.4577276 Z" id="Path" fill="#FFFFFF"></path>
                            <path d="M53.9463485,54.1435292 C53.8624321,53.7120245 53.7698029,53.2754755 53.5606997,52.8843241 C53.3818614,52.5491168 53.1259851,52.2533458 52.8288384,52.0171875 C52.1694293,51.4925951 51.3032099,51.2784477 50.4750509,51.4403192 L45.1768513,52.473913 L42.5914911,39.2233696 C47.1349015,37.3350203 49.3589165,29.8091373 47.6911345,21.2615829 C45.9440217,12.3068275 41.9256623,5.30553663 41.7559953,5.01205837 C41.5037873,4.57734381 41.0034986,4.34989816 40.5105469,4.44619565 L29.1323029,6.66608353 C28.6393513,6.76238114 28.2610395,7.1613281 28.1908797,7.65886555 C28.1436482,7.99498984 27.0527344,15.9931895 28.7998471,24.9474864 C30.467629,33.4950408 35.3581692,39.6328634 40.2780571,39.6750509 L42.8634171,52.9255944 L37.5656759,53.9591882 C36.4623811,54.1742527 35.5567255,55.0578974 35.3017663,56.1506453 C35.1509002,56.7995074 35.2508661,57.4942255 35.4563009,58.1201596 C35.656233,58.7295855 36.0638927,59.2647248 36.5976562,59.6196502 C37.2263417,60.0378567 38.0127717,60.1965183 38.7542629,60.0520721 L51.6636379,57.5332031 C53.2085258,57.2314708 54.2485395,55.6907099 53.9463485,54.1435292 Z M30.4318614,8.8144362 L40.1138927,6.9251699 C41.1644531,8.92082207 44.0235734,14.772962 45.3777004,21.7128058 C45.4377717,22.0204993 45.4914232,22.3272758 45.5404891,22.6331352 L30.7899966,22.6331352 C29.8389436,16.4196502 30.2287194,10.8564029 30.4318614,8.8144362 Z M51.5517493,54.9946161 C51.5058933,55.0629416 51.4008832,55.1826257 51.2124151,55.2193105 L38.3034986,57.7386379 C38.1407099,57.7702786 37.9655401,57.7202955 37.8431047,57.6088655 C37.7032439,57.4827616 37.6748132,57.3011719 37.6413384,57.1255435 C37.6064877,56.945788 37.5560462,56.7554857 37.6335428,56.5793987 C37.7023268,56.4230299 37.8495245,56.3051801 38.0173573,56.2726223 L50.9262737,53.7532949 C51.1913214,53.7014776 51.4311482,53.8674763 51.5269871,54.1100543 C51.6255775,54.3585938 51.7122453,54.7561651 51.5517493,54.9946161 Z M40.1010529,37.3125509 C39.0844259,37.2515625 38.133373,36.7861243 37.3240149,36.1909138 C36.5146569,35.5957031 35.8162703,34.858339 35.1985904,34.0686991 C34.8244056,33.5899627 34.4804857,33.0878397 34.1617866,32.5705842 C33.5560292,31.5883492 33.0011719,30.4827616 32.518767,29.2827105 C31.9588655,27.8941916 31.5296536,26.4533967 31.2150815,24.9901324 L45.8119565,24.9901324 C45.9623641,27.1348166 45.8679008,29.3285666 45.3699049,31.426019 C45.2277514,32.0244395 45.0502888,32.6150645 44.8306386,33.1896399 C44.0033967,35.3522079 42.7616168,36.7544837 41.3098166,37.1791101 C40.9182065,37.2923743 40.5087127,37.336396 40.1010529,37.3125509 Z" id="Shape" fill="#1CD585" fill-rule="nonzero"></path>
                            <path d="M27.932252,1.17849858 C27.932252,0.527802339 27.4044497,0 26.7537534,0 C26.1025985,0 25.5752547,0.527802339 25.5752547,1.17849858 L25.5752547,5.00793136 C25.5752547,5.65862772 26.1025985,6.18643006 26.7537534,6.18643006 C27.4044497,6.18643006 27.932252,5.65862772 27.932252,5.00793136 L27.932252,1.17849858 Z" id="Path" fill="#FFFFFF"></path>
                            <path d="M21.9741848,4.4599525 C22.1961277,4.82542462 22.5845279,5.02719093 22.9830163,5.02719093 C23.1912025,5.02719093 23.4025985,4.9717051 23.5933594,4.85568951 C24.1495924,4.51773098 24.3270551,3.79274799 23.9890964,3.23651489 L22.536379,0.844667061 C22.1984205,0.288892722 21.473896,0.111430057 20.9172045,0.449388587 C20.3609714,0.787347117 20.1839674,1.5123301 20.5219259,2.06856321 L21.9741848,4.4599525 Z" id="Path" fill="#FFFFFF"></path>
                            <path d="M30.1480129,4.85568951 C30.3387737,4.9717051 30.5501699,5.02719093 30.758356,5.02719093 C31.1568444,5.02719093 31.5452446,4.82542462 31.7671875,4.4599525 L33.2194464,2.06856321 C33.5574049,1.5123301 33.3804008,0.787347117 32.8241678,0.449388587 C32.2674763,0.111430057 31.5429518,0.288434074 31.2049931,0.844667061 L29.7527344,3.23651489 C29.4143172,3.79274799 29.5917799,4.51773098 30.1480129,4.85568951 Z" id="Path" fill="#FFFFFF"></path>
                            <path d="M39.2939877,14.6757473 C39.7424592,15.9046875 40.1478261,17.1501359 40.5027514,18.409341 C40.6430707,18.907337 40.7201087,19.4314708 41.2002208,19.7203634 C41.6225543,19.9739471 42.1751189,19.9340523 42.5557235,19.620856 C42.9129416,19.3273777 43.0587636,18.8509341 42.9459579,18.4056725 C42.7914232,17.7944123 42.6079993,17.1886549 42.4222826,16.5856487 C42.2306047,15.9615489 42.027004,15.340659 41.8128567,14.723896 C41.7069293,14.4184953 41.6110904,14.1034647 41.4836107,13.8063179 C41.3969429,13.6031759 41.2524966,13.427089 41.0709069,13.3019022 C40.6559103,13.0157609 40.0891304,13.028142 39.6869735,13.3330842 C39.2806895,13.6426121 39.1183594,14.1960938 39.2939877,14.6757473 Z" id="Path" fill="#FFFFFF"></path>
                            <path d="M21.3056047,23.9524116 C21.3056047,24.6058594 20.7755095,25.1359545 20.1220618,25.1359545 C19.4681556,25.1359545 18.938519,24.6058594 18.938519,23.9524116 C18.938519,23.2985054 19.4681556,22.7688689 20.1220618,22.7688689 C20.7755095,22.7688689 21.3056047,23.2985054 21.3056047,23.9524116 Z" id="Path" fill="#FFFFFF"></path>
                            <path d="M39.8089504,9.9273607 C39.8089504,10.5808084 39.2788553,11.1109036 38.6254076,11.1109036 C37.9719599,11.1109036 37.4418648,10.5808084 37.4418648,9.9273607 C37.4418648,9.27345451 37.9719599,8.74381793 38.6254076,8.74381793 C39.2788553,8.74381793 39.8089504,9.27345451 39.8089504,9.9273607 Z" id="Path" fill="#FFFFFF"></path>
                        </g>
                    </g>
                </g>
            </g>
        </g>
    </g>
</svg>