<?xml version="1.0" encoding="UTF-8"?>
<svg width="64px" height="64px" viewBox="0 0 64 64" version="1.1" xmlns="http://www.w3.org/2000/svg" xmlns:xlink="http://www.w3.org/1999/xlink">
    <!-- Generator: Sketch 52.2 (67145) - http://www.bohemiancoding.com/sketch -->
    <title>happiness</title>
    <desc>Created with Sketch.</desc>
    <g id="Page-1" stroke="none" stroke-width="1" fill="none" fill-rule="evenodd">
        <g id="Desktop-HD-Copy" transform="translate(-885.000000, -1212.000000)">
            <g id="Group-24" transform="translate(885.000000, 1210.000000)">
                <g id="happiness" transform="translate(0.000000, 2.000000)">
                    <path d="M38.64075,19.841125 C38.077625,19.44175 37.297375,19.574 36.897875,20.137125 L36.873625,20.17125 C36.474125,20.73425 36.606625,21.5145 37.169625,21.914 C37.38925,22.06975 37.64175,22.14475 37.892,22.14475 C38.283375,22.14475 38.66875,21.9615 38.9125,21.618 L38.93675,21.583875 C39.33625,21.020875 39.20375,20.240625 38.64075,19.841125 Z" id="Path" fill="#1CD585" fill-rule="nonzero"></path>
                    <path d="M35.793,23.383625 C35.35525,22.84975 34.567625,22.772125 34.033875,23.21 C32.29725,24.6345 30.323875,25.6485 28.1685,26.224 C27.5015,26.402125 27.105125,27.087125 27.28325,27.754125 C27.4325,28.313125 27.93775,28.682 28.490125,28.682 C28.596875,28.682 28.705375,28.66825 28.813375,28.63925 C31.3155,27.971125 33.60525,26.79475 35.61925,25.14275 C36.153125,24.705 36.230875,23.91725 35.793,23.383625 Z" id="Path" fill="#1CD585" fill-rule="nonzero"></path>
                    <path d="M60.25,28.30875 C58.18225,28.30875 56.5,29.991 56.5,32.058625 L56.5,32.68375 C56.5,37.925875 52.683125,42.2905 47.683125,43.151625 C48.336125,42.1885 48.718125,41.027375 48.718125,39.778625 L48.718125,38.910375 C48.718125,35.587875 46.015,32.884875 42.6925,32.884875 C39.37,32.884875 36.667,35.587875 36.667,38.910375 L36.667,39.778625 C36.667,40.995625 37.03075,42.128625 37.653625,43.077 C32.85,42.05875 29.234,37.78625 29.234,32.68375 L29.234,32.058625 C29.234,29.991 27.55175,28.30875 25.484,28.30875 C23.41625,28.30875 21.734,29.991 21.734,32.058625 L21.734,32.68375 C21.734,35.220875 22.25025,37.6745 23.24625,39.941375 L14.969125,39.941375 L14.740875,39.941375 L14.740875,27.352875 C14.740875,26.794875 14.371125,26.304375 13.834625,26.151125 C7.161,24.2425 2.5,18.063625 2.5,11.125 L2.5,10.5 C2.5,9.81075 3.06075,9.25 3.75,9.25 C4.43925,9.25 5,9.81075 5,10.5 L5,11.125 C5,18.362125 10.887875,24.25 18.125,24.25 L24.140875,24.25 C31.378,24.25 37.265875,18.362125 37.265875,11.125 L37.265875,10.5 C37.265875,9.81075 37.826625,9.25 38.515875,9.25 C39.205125,9.25 39.765875,9.81075 39.765875,10.5 L39.765875,11.125 C39.765875,13.046375 39.41975,14.92325 38.737,16.703125 C38.48975,17.347625 38.811875,18.070625 39.4565,18.317875 C40.10075,18.56525 40.824,18.242875 41.07125,17.598375 C41.864,15.531625 42.265875,13.353625 42.265875,11.125 L42.265875,10.5 C42.265875,8.43225 40.583625,6.75 38.515875,6.75 C36.448125,6.75 34.765875,8.43225 34.765875,10.5 L34.765875,11.125 C34.765875,16.367 30.949,20.731625 25.949125,21.592875 C26.602125,20.62975 26.984,19.46875 26.984,18.220125 L26.984,17.351875 C26.984,14.029375 24.280875,11.32625 20.958375,11.32625 C17.635875,11.32625 14.932875,14.029375 14.932875,17.351875 L14.932875,18.220125 C14.932875,19.437 15.296625,20.57 15.9195,21.51825 C11.115875,20.5 7.5,16.2275 7.5,11.125 L7.5,10.5 C7.5,8.43225 5.81775,6.75 3.75,6.75 C1.68225,6.75 0,8.43225 0,10.5 L0,11.125 C0,15.13825 1.29025,18.9435 3.731125,22.129125 C5.899125,24.9585 8.89475,27.1135 12.241,28.268875 L12.241,41.19125 C12.241,41.8815 12.800625,42.44125 13.491,42.44125 L13.71925,42.44125 L13.71925,62.75 C13.71925,63.44025 14.278875,64 14.96925,64 C15.659625,64 16.21925,63.44025 16.21925,62.75 L16.21925,42.44125 L24.58925,42.44125 C24.8625,42.866125 25.154375,43.282 25.46525,43.68775 C25.548,43.79575 25.634125,43.90075 25.71925,44.00675 L25.71925,62.75 C25.71925,63.44025 26.278875,64 26.96925,64 C27.659625,64 28.21925,63.44025 28.21925,62.75 L28.21925,46.56125 C29.922375,47.988625 31.88,49.104 33.975125,49.8275 L33.975125,62.75 C33.975125,63.44025 34.53475,64 35.225125,64 C35.9155,64 36.475125,63.44025 36.475125,62.75 L36.475125,48.9115 C36.475125,48.3535 36.105375,47.863 35.568875,47.70975 C28.895125,45.801125 24.234125,39.622375 24.234125,32.68375 L24.234125,32.058625 C24.234125,31.369375 24.794875,30.80875 25.484125,30.80875 C26.173375,30.80875 26.734125,31.369375 26.734125,32.058625 L26.734125,32.68375 C26.734125,39.920875 32.622,45.80875 39.859125,45.80875 L45.875,45.80875 C53.112125,45.80875 59,39.920875 59,32.68375 L59,32.058625 C59,31.369375 59.56075,30.80875 60.25,30.80875 C60.93925,30.80875 61.5,31.369375 61.5,32.058625 L61.5,32.68375 C61.5,39.7505 56.731,45.959375 49.90275,47.782625 C49.35575,47.928625 48.97525,48.424125 48.97525,48.99025 L48.97525,58.041625 C48.97525,58.731875 49.534875,59.291625 50.22525,59.291625 C50.915625,59.291625 51.47525,58.731875 51.47525,58.041625 L51.47525,49.92375 C58.897,47.512625 64,40.557375 64,32.68375 L64,32.058625 C64,29.991 62.31775,28.30875 60.25,28.30875 Z M17.432875,17.35175 C17.432875,15.407625 19.014375,13.826125 20.958375,13.826125 C22.902375,13.826125 24.484,15.407625 24.484,17.35175 L24.484,18.22 C24.484,20.164 22.9025,21.7455 20.958375,21.7455 C19.014375,21.7455 17.432875,20.164 17.432875,18.22 L17.432875,17.35175 Z M46.218125,39.778625 C46.218125,41.722625 44.636625,43.304125 42.6925,43.304125 C40.7485,43.304125 39.167,41.722625 39.167,39.778625 L39.167,38.910375 C39.167,36.966375 40.7485,35.384875 42.6925,35.384875 C44.6365,35.384875 46.218125,36.966375 46.218125,38.910375 L46.218125,39.778625 Z" id="Shape" fill="#1CD585" fill-rule="nonzero"></path>
                    <path d="M51.10875,61.86625 C50.87625,61.633625 50.55375,61.5 50.225,61.5 C49.89625,61.5 49.57375,61.633625 49.34125,61.86625 C49.10875,62.09875 48.975,62.42125 48.975,62.75 C48.975,63.07875 49.10875,63.40125 49.34125,63.633625 C49.57375,63.866125 49.89625,64 50.225,64 C50.55375,64 50.87625,63.86625 51.10875,63.633625 C51.34125,63.40125 51.475,63.07875 51.475,62.75 C51.475,62.42125 51.34125,62.09875 51.10875,61.86625 Z" id="Path" fill="#1CD585" fill-rule="nonzero"></path>
                    <path d="M20.958375,46.75 C20.268,46.75 19.708375,47.30975 19.708375,48 L19.708375,62.75 C19.708375,63.44025 20.268,64 20.958375,64 C21.64875,64 22.208375,63.44025 22.208375,62.75 L22.208375,48 C22.208375,47.30975 21.64875,46.75 20.958375,46.75 Z" id="Path" fill="#1CD585" fill-rule="nonzero"></path>
                    <path d="M58.25,10.25 C57.559625,10.25 57,10.80975 57,11.5 L57,13.05375 C57,13.744 57.559625,14.30375 58.25,14.30375 C58.940375,14.30375 59.5,13.744 59.5,13.05375 L59.5,11.5 C59.5,10.80975 58.940375,10.25 58.25,10.25 Z" id="Path" fill="#FFFFFF"></path>
                    <path d="M58.25,17.69625 C57.559625,17.69625 57,18.256 57,18.94625 L57,20.5 C57,21.19025 57.559625,21.75 58.25,21.75 C58.940375,21.75 59.5,21.19025 59.5,20.5 L59.5,18.94625 C59.5,18.256 58.940375,17.69625 58.25,17.69625 Z" id="Path" fill="#FFFFFF"></path>
                    <path d="M62.75,14.75 L61.19625,14.75 C60.505875,14.75 59.94625,15.30975 59.94625,16 C59.94625,16.69025 60.505875,17.25 61.19625,17.25 L62.75,17.25 C63.440375,17.25 64,16.69025 64,16 C64,15.30975 63.440375,14.75 62.75,14.75 Z" id="Path" fill="#FFFFFF"></path>
                    <path d="M55.30375,14.75 L53.75,14.75 C53.059625,14.75 52.5,15.30975 52.5,16 C52.5,16.69025 53.059625,17.25 53.75,17.25 L55.30375,17.25 C55.994125,17.25 56.55375,16.69025 56.55375,16 C56.55375,15.30975 55.994125,14.75 55.30375,14.75 Z" id="Path" fill="#FFFFFF"></path>
                    <path d="M27.484125,0 C26.79375,0 26.234125,0.55975 26.234125,1.25 L26.234125,2.80375 C26.234125,3.494 26.79375,4.05375 27.484125,4.05375 C28.1745,4.05375 28.734125,3.494 28.734125,2.80375 L28.734125,1.25 C28.734125,0.55975 28.1745,0 27.484125,0 Z" id="Path" fill="#FFFFFF"></path>
                    <path d="M27.484125,7.44625 C26.79375,7.44625 26.234125,8.006 26.234125,8.69625 L26.234125,10.25 C26.234125,10.94025 26.79375,11.5 27.484125,11.5 C28.1745,11.5 28.734125,10.94025 28.734125,10.25 L28.734125,8.69625 C28.734125,8.006 28.1745,7.44625 27.484125,7.44625 Z" id="Path" fill="#FFFFFF"></path>
                    <path d="M31.984125,4.5 L30.430375,4.5 C29.74,4.5 29.180375,5.05975 29.180375,5.75 C29.180375,6.44025 29.74,7 30.430375,7 L31.984125,7 C32.6745,7 33.234125,6.44025 33.234125,5.75 C33.234125,5.05975 32.6745,4.5 31.984125,4.5 Z" id="Path" fill="#FFFFFF"></path>
                    <path d="M24.537875,4.5 L22.984125,4.5 C22.29375,4.5 21.734125,5.05975 21.734125,5.75 C21.734125,6.44025 22.29375,7 22.984125,7 L24.537875,7 C25.22825,7 25.787875,6.44025 25.787875,5.75 C25.787875,5.05975 25.22825,4.5 24.537875,4.5 Z" id="Path" fill="#FFFFFF"></path>
                </g>
            </g>
        </g>
    </g>
</svg>