<?xml version="1.0" encoding="UTF-8"?>
<svg width="38px" height="27px" viewBox="0 0 38 27" version="1.1" xmlns="http://www.w3.org/2000/svg" xmlns:xlink="http://www.w3.org/1999/xlink">
    <!-- Generator: Sketch 52.2 (67145) - http://www.bohemiancoding.com/sketch -->
    <title>mail</title>
    <desc>Created with Sketch.</desc>
    <g id="Page-1" stroke="none" stroke-width="1" fill="none" fill-rule="evenodd">
        <g id="Desktop-HD-Copy" transform="translate(-751.000000, -6305.000000)" fill="#FFFFFF">
            <g id="Group-2" transform="translate(127.000000, 1746.000000)">
                <g id="mail" transform="translate(624.000000, 4559.000000)">
                    <path d="M37.6652734,1.90898047 L26.1406602,13.359375 L37.6652734,24.8097695 C37.8736055,24.3743281 38,23.8929453 38,23.3789062 L38,3.33984375 C38,2.82573047 37.8736055,2.34442187 37.6652734,1.90898047 Z" id="Path"></path>
                    <path d="M34.6601563,0 L3.33984375,0 C2.82573047,0 2.34442188,0.126394531 1.90898047,0.334726563 L16.6386563,14.9901836 C17.9410469,16.2925742 20.0589531,16.2925742 21.3613437,14.9901836 L36.0910195,0.334726563 C35.6555781,0.126394531 35.1742695,0 34.6601563,0 Z" id="Path"></path>
                    <path d="M0.334726562,1.90898047 C0.126394531,2.34442187 0,2.82573047 0,3.33984375 L0,23.3789062 C0,23.8930195 0.126394531,24.3744023 0.334726562,24.8097695 L11.8593398,13.359375 L0.334726562,1.90898047 Z" id="Path"></path>
                    <path d="M24.5664062,14.9336289 L22.9355977,16.5644375 C20.7655156,18.7345195 17.2344102,18.7345195 15.0643281,16.5644375 L13.4335938,14.9336289 L1.90898047,26.3840234 C2.34442188,26.5923555 2.82573047,26.71875 3.33984375,26.71875 L34.6601563,26.71875 C35.1742695,26.71875 35.6555781,26.5923555 36.0910195,26.3840234 L24.5664062,14.9336289 Z" id="Path"></path>
                </g>
            </g>
        </g>
    </g>
</svg>