<?xml version="1.0" encoding="UTF-8"?>
<svg width="16px" height="16px" viewBox="0 0 16 16" version="1.1" xmlns="http://www.w3.org/2000/svg" xmlns:xlink="http://www.w3.org/1999/xlink">
    <!-- Generator: Sketch 52.2 (67145) - http://www.bohemiancoding.com/sketch -->
    <title>Instagram_simple_icon</title>
    <desc>Created with Sketch.</desc>
    <g id="Page-1" stroke="none" stroke-width="1" fill="none" fill-rule="evenodd">
        <g id="Desktop-HD-Copy" transform="translate(-1045.000000, -32.000000)" fill="#FFFFFF">
            <g id="Instagram_simple_icon" transform="translate(1045.000000, 32.000000)">
                <path d="M8,1.44352381 C10.1354286,1.44352381 10.3883492,1.45168254 11.231746,1.49015873 C12.0114921,1.52574603 12.4349206,1.656 12.7167619,1.76552381 C13.0641299,1.89373079 13.3783486,2.09815849 13.6363175,2.36377778 C13.9019368,2.62174661 14.1063644,2.93596538 14.2345714,3.28333333 C14.3440952,3.56514286 14.474381,3.98860317 14.5099365,4.76834921 C14.5484127,5.61168254 14.5565714,5.86460317 14.5565714,8.00009524 C14.5565714,10.1355873 14.5484127,10.3884444 14.5099365,11.2318413 C14.4743492,12.0115873 14.3440635,12.4350159 14.2345714,12.7168571 C13.96552,13.4143308 13.4142355,13.9656153 12.7167619,14.2346667 C12.4349524,14.3441905 12.0114921,14.4744762 11.231746,14.5100317 C10.3885714,14.5485079 10.1356508,14.5566667 8,14.5566667 C5.86434921,14.5566667 5.61152381,14.5485079 4.76825397,14.5100317 C3.98850794,14.4744444 3.56507937,14.3441587 3.2832381,14.2346667 C2.93586965,14.1064607 2.62165069,13.9020328 2.36368254,13.6364127 C2.09806409,13.3784432 1.89363652,13.0642246 1.76542857,12.7168571 C1.65590476,12.4350476 1.52561905,12.0115873 1.49006349,11.2318413 C1.4515873,10.3885397 1.44342857,10.1355873 1.44342857,8.00009524 C1.44342857,5.86460317 1.4515873,5.61174603 1.49006349,4.76834921 C1.52565079,3.98860317 1.65590476,3.5651746 1.76542857,3.28333333 C1.89364986,2.93594807 2.09809982,2.62171757 2.36374603,2.36374603 C2.62171556,2.09812758 2.93593412,1.89370001 3.28330159,1.76549206 C3.56511111,1.65596825 3.98857143,1.52568254 4.76831746,1.49012698 C5.61165079,1.45165079 5.86457143,1.44349206 8.00006349,1.44349206 L8,1.44352381 Z M8.00006349,0.00250793651 C5.82806349,0.00250793651 5.55561905,0.0117142857 4.70273016,0.0506349206 C3.85146032,0.0894920635 3.27012698,0.224666667 2.76142857,0.422380952 C2.22779678,0.623194642 1.74439115,0.937993331 1.34492063,1.3448254 C0.937996885,1.74427087 0.623110296,2.22767839 0.422222222,2.76133333 C0.224666667,3.27006349 0.0894920635,3.85139683 0.0507936508,4.70266667 C0.0117142857,5.55555556 0.00250793651,5.828 0.00250793651,8 C0.00250793651,10.172 0.0117142857,10.4444444 0.0507936508,11.2973333 C0.0896507937,12.1486032 0.224825397,12.7299365 0.422539683,13.2386349 C0.623354287,13.7722662 0.938152855,14.2556717 1.34498413,14.6551429 C1.74445334,15.0619765 2.22785935,15.3767754 2.76149206,15.5775873 C3.27022222,15.7753016 3.85155556,15.9104762 4.70279365,15.9493333 C5.55580952,15.988254 5.82815873,15.9974603 8.00012698,15.9974603 C10.1720952,15.9974603 10.4445714,15.988254 11.2974603,15.9493333 C12.1487302,15.9104762 12.7300635,15.7753016 13.2387619,15.5775873 C14.3130077,15.1621101 15.1622371,14.3128807 15.5777143,13.2386349 C15.7754286,12.7299048 15.9106032,12.1485714 15.9494603,11.2973333 C15.988381,10.4443175 15.9975873,10.1719683 15.9975873,8 C15.9975873,5.82803175 15.988381,5.55555556 15.9494603,4.70266667 C15.9106032,3.85139683 15.7754286,3.27006349 15.5777143,2.76136508 C15.3769024,2.22773237 15.0621035,1.74432636 14.6552698,1.34485714 C14.2557912,0.937943967 13.7723504,0.623078524 13.2386667,0.422222222 C12.7299365,0.224666667 12.1486032,0.0894920635 11.2973333,0.0507936508 C10.4444444,0.0117142857 10.172,0.00250793651 8,0.00250793651 L8.00006349,0.00250793651 Z" id="Shape" fill-rule="nonzero"></path>
                <path d="M8,3.8931746 C5.73186296,3.8931746 3.8931746,5.73186296 3.8931746,8 C3.8931746,10.268137 5.73186296,12.1068254 8,12.1068254 C10.268137,12.1068254 12.1068254,10.268137 12.1068254,8 C12.1068254,5.73186296 10.268137,3.8931746 8,3.8931746 Z M8,10.6658095 C6.52771819,10.665792 5.33421053,9.47226065 5.33422222,7.99997884 C5.33423391,6.52769702 6.52776051,5.33418463 8.00004233,5.33419048 C9.47232414,5.33419632 10.6658413,6.52771819 10.6658413,8 C10.6658237,9.47229108 9.47229108,10.6658095 8,10.6658095 Z" id="Shape" fill-rule="nonzero"></path>
                <circle id="Oval" cx="12.2690794" cy="3.73092063" r="1"></circle>
            </g>
        </g>
    </g>
</svg>