<?xml version="1.0" encoding="UTF-8"?>
<svg width="73px" height="137px" viewBox="0 0 73 137" version="1.1" xmlns="http://www.w3.org/2000/svg" xmlns:xlink="http://www.w3.org/1999/xlink">
    <!-- Generator: Sketch 52.2 (67145) - http://www.bohemiancoding.com/sketch -->
    <title>Group</title>
    <desc>Created with Sketch.</desc>
    <g id="Page-1" stroke="none" stroke-width="1" fill="none" fill-rule="evenodd">
        <g id="Desktop-HD-Copy" transform="translate(-438.000000, -973.000000)" fill="#141C32">
            <g id="Group-3" transform="translate(390.000000, 922.000000)">
                <g id="Group" transform="translate(48.000000, 51.000000)">
                    <path d="M19.3386667,49.3595745 C19.3386667,49.3595745 24.8023333,42.4346809 21.2688333,32.8174468 C17.723,23.2062766 9.46583333,19.5558511 9.46583333,19.5558511 C9.46583333,19.5558511 3.28683333,27.8087234 6.74016667,37.1773404 C10.1873333,46.5520213 19.3386667,49.3595745 19.3386667,49.3595745 Z" id="Path"></path>
                    <path d="M34.5025,54.2773404 C34.5025,54.2773404 44.0546667,53.5254255 49.5245,45.1270213 C54.9943333,36.7346809 50.8133333,27.3478723 50.8133333,27.3478723 C50.8133333,27.3478723 41.9456667,29.1185106 36.3278333,37.7352128 C30.7161667,46.3458511 34.5025,54.2773404 34.5025,54.2773404 Z" id="Path"></path>
                    <path d="M35.4706667,65.3741489 C31.0491667,74.633617 35.853,82.0193617 35.853,82.0193617 C35.853,82.0193617 45.2325,80.0425532 49.5368333,71.0256383 C53.835,61.9965957 48.4453333,53.2282979 48.4453333,53.2282979 C48.4453333,53.2282979 39.8921667,56.1146809 35.4706667,65.3741489 Z" id="Path"></path>
                    <path d="M57.0601667,72.8326596 C57.0601667,72.8326596 48.8153333,76.5073404 45.3003333,86.1245745 C41.7853333,95.76 47.2675,102.660638 47.2675,102.660638 C47.2675,102.660638 56.4065,99.8288298 59.8351667,90.4480851 C63.2576667,81.0673404 57.0601667,72.8326596 57.0601667,72.8326596 Z" id="Path"></path>
                    <path d="M63.9298333,123.477766 C63.9298333,123.477766 71.8601667,118.171915 72.3966667,108.22117 C72.927,98.2643617 64.5711667,92.1398936 64.5711667,92.1398936 C64.5711667,92.1398936 57.7508333,97.9914894 57.202,108.202979 C56.6593333,118.408404 63.9298333,123.477766 63.9298333,123.477766 Z" id="Path"></path>
                    <path d="M31.5178333,30.8285106 C31.5178333,30.8285106 39.9723333,28.0512766 42.4513333,18.1247872 C44.9365,8.19829787 40.1326667,0.654893617 40.1326667,0.654893617 C40.1326667,0.654893617 30.34,4.14765957 27.9165,13.8315957 C25.4991667,23.5094681 31.5178333,30.8285106 31.5178333,30.8285106 Z" id="Path"></path>
                    <path d="M19.3325,70.467766 C19.3325,70.467766 22.4713333,62.2634043 16.2121667,54.1075532 C9.94066667,45.9456383 0.962,44.8480851 0.962,44.8480851 C0.962,44.8480851 -2.46666667,54.5259574 3.63833333,62.4817021 C9.74333333,70.4435106 19.3325,70.467766 19.3325,70.467766 Z" id="Path"></path>
                    <path d="M26.3378333,92.1156383 C26.3378333,92.1156383 27.5403333,83.432234 19.5976667,76.8469149 C11.6426667,70.2555319 2.63933333,71.1529787 2.63933333,71.1529787 C2.63933333,71.1529787 1.48,81.3402128 9.22533333,87.7618085 C16.983,94.1773404 26.3378333,92.1156383 26.3378333,92.1156383 Z" id="Path"></path>
                    <path d="M37.0061667,110.016064 C37.0061667,110.016064 35.4953333,101.38117 25.8876667,97.4760638 C16.2738333,93.5588298 7.9735,97.0940426 7.9735,97.0940426 C7.9735,97.0940426 10.0085,107.147872 19.3695,110.968085 C28.7305,114.770106 37.0061667,110.016064 37.0061667,110.016064 Z" id="Path"></path>
                    <path d="M41.6681667,117.450319 C31.6535,114.69734 23.8341667,119.178511 23.8341667,119.178511 C23.8341667,119.178511 27.0716667,128.917021 36.8273333,131.603298 C46.5953333,134.289574 54.2296667,128.595638 54.2296667,128.595638 C54.2296667,128.595638 51.6828333,120.197234 41.6681667,117.450319 Z" id="Path"></path>
                    <path d="M32.56,36.7468085 L28.1076667,34.5941489 C27.8733333,35.0731915 4.97033333,82.9107447 69.3256667,137.00617 L72.5446667,133.30117 C11.2726667,81.7889362 31.6596667,38.5598936 32.56,36.7468085 Z" id="Path"></path>
                </g>
            </g>
        </g>
    </g>
</svg>