<?xml version="1.0" encoding="UTF-8"?>
<svg width="58px" height="62px" viewBox="0 0 58 62" version="1.1" xmlns="http://www.w3.org/2000/svg" xmlns:xlink="http://www.w3.org/1999/xlink">
    <!-- Generator: Sketch 52.2 (67145) - http://www.bohemiancoding.com/sketch -->
    <title>sparkler</title>
    <desc>Created with Sketch.</desc>
    <g id="Page-1" stroke="none" stroke-width="1" fill="none" fill-rule="evenodd">
        <g id="Desktop-HD-Copy" transform="translate(-1147.000000, -1450.000000)">
            <g id="Group-11" transform="translate(150.000000, 1398.000000)">
                <g id="Group-4" transform="translate(912.000000, 0.000000)">
                    <g id="Group-13" transform="translate(80.000000, 50.000000)">
                        <g id="sparkler" transform="translate(5.000000, 2.000000)">
                            <path d="M29.0037604,12.1610477 L34.0971862,13.653916 C34.2104674,13.6868193 34.3242188,13.7028008 34.43656,13.7028008 C34.9569016,13.7028008 35.4368193,13.362017 35.5905245,12.8374449 C35.7776031,12.1995915 35.4119067,11.5311852 34.7740534,11.3441066 L29.6806276,9.85123839 C29.0427743,9.66556992 28.3743678,10.029856 28.1872893,10.6677094 C28.0002107,11.3055628 28.3659071,11.9739691 29.0037604,12.1610477 Z" id="Path" fill="#1CD585"></path>
                            <path d="M57.0740081,17.8801057 L51.9801121,16.3872375 C51.343199,16.2006288 50.6738525,16.5653851 50.4872439,17.2032385 C50.3001654,17.8410918 50.6658616,18.5094981 51.3032449,18.6965768 L56.3971409,20.189445 C56.5099521,20.2223483 56.6241733,20.2383299 56.7360445,20.2383299 C57.2563861,20.2383299 57.7363038,19.8980161 57.8904792,19.372974 C58.0770877,18.7355907 57.7118614,18.0671842 57.0740081,17.8801057 Z" id="Path" fill="#FFFFFF"></path>
                            <path d="M50.9060555,11.9236742 C51.1011249,11.9236742 51.2990145,11.8757294 51.4823328,11.7756094 L56.1395552,9.22983662 C56.7228832,8.91114503 56.9372245,8.17975227 56.6185328,7.59689439 C56.2998412,7.01356649 55.5684486,6.7992252 54.9855907,7.11791691 L50.3278981,9.66415975 C49.7450403,9.98285146 49.530699,10.714244 49.8493906,11.2971019 C50.0679622,11.6971116 50.4801931,11.9236742 50.9060555,11.9236742 Z" id="Path" fill="#FFFFFF"></path>
                            <path d="M34.5954357,18.2650739 L29.9382132,20.8113168 C29.3548853,21.1300084 29.140544,21.860931 29.4592356,22.4442589 C29.6778073,22.8437987 30.0905083,23.0703611 30.5163705,23.0703611 C30.7114399,23.0703611 30.9093297,23.0228864 31.0921778,22.9227665 L35.7498703,20.3765237 C36.3327282,20.057832 36.5470695,19.3264393 36.2283778,18.7435814 C35.9096862,18.1602535 35.1782936,17.9463823 34.5954357,18.2650739 Z" id="Path" fill="#FFFFFF"></path>
                            <path d="M50.941309,26.966578 L48.3950662,22.3093556 C48.0763745,21.7260276 47.3449818,21.5121564 46.762124,21.830848 C46.1787961,22.1495396 45.9644548,22.8809324 46.2831464,23.4637903 L48.8293892,28.1210126 C49.047961,28.5210224 49.4606619,28.747585 49.8860541,28.747585 C50.0811235,28.747585 50.2790133,28.6996401 50.4623314,28.5995202 C51.0456593,28.2808286 51.2600006,27.549906 50.941309,26.966578 Z" id="Path" fill="#FFFFFF"></path>
                            <path d="M37.6827023,7.7313278 C37.901274,8.13133756 38.313975,8.3579 38.7393672,8.3579 C38.9344366,8.3579 39.1323262,8.30995529 39.3156444,8.20983526 C39.8989724,7.89114367 40.1133137,7.16022105 39.794152,6.57689315 L37.2483791,1.91967064 C36.9296876,1.33634274 36.1982948,1.12247147 35.6154369,1.44116306 C35.032109,1.75985477 34.8177677,2.49077739 35.1364594,3.07410529 L37.6827023,7.7313278 Z" id="Path" fill="#FFFFFF"></path>
                            <path d="M45.221781,7.57198195 C45.3350622,7.60535529 45.4488135,7.6208668 45.5606846,7.6208668 C46.0810264,7.6208668 46.560944,7.280553 46.7151193,6.75598091 L48.2079876,1.66208506 C48.3945961,1.02423175 48.0293698,0.355825307 47.3915165,0.168746788 C46.7536631,-0.0173916971 46.0852567,0.347364527 45.8981782,0.985217842 L44.40531,6.07911369 C44.2187013,6.716967 44.5839276,7.38537344 45.221781,7.57198195 Z" id="Path" fill="#FFFFFF"></path>
                            <path d="M53.3065839,31.3098093 C53.1223256,30.8595047 52.6663803,30.5633753 52.1817622,30.5671357 C51.6755219,30.5713661 51.2200467,30.9060393 51.0564704,31.3831367 C50.8961845,31.8503631 51.0498898,32.3857463 51.4315676,32.6992674 C51.8353378,33.0311203 52.4275966,33.0612033 52.8628599,32.7702444 C53.3329065,32.4557832 53.5251556,31.8334414 53.3065839,31.3098093 Z" id="Path" fill="#FFFFFF"></path>
                            <path d="M46.2713952,17.672345 L47.1123087,14.8036502 C47.1123087,14.8027101 47.1123087,14.8017699 47.1127788,14.8008299 L47.1202996,14.7759174 C47.7125583,12.7551867 46.5501329,10.6291656 44.5294023,10.0369067 L44.4744067,10.0204552 C43.4952996,9.73372666 42.463077,9.84512769 41.5681081,10.3344463 C40.6731392,10.8237649 40.0221246,11.6327152 39.7353962,12.6113525 L39.7283454,12.6357948 C39.7278754,12.636735 39.7274054,12.6381451 39.7274054,12.6390852 L38.8864918,15.5082501 C38.8860218,15.5087201 38.8860218,15.5091903 38.8860218,15.5101303 L34.0238589,32.0980777 C33.5467615,33.7253792 34.2081172,35.4203676 35.5397594,36.3284978 L29.4216318,57.2028008 C29.2350233,57.8406541 29.6002496,58.5090606 30.2381029,58.6961391 C30.3509141,58.7290424 30.4651355,58.745024 30.5770066,58.745024 C31.0973483,58.745024 31.577266,58.4047102 31.7309712,57.879668 L37.8495689,37.0034849 C39.4599488,36.9574202 40.932135,35.8899442 41.4087623,34.2626426 L46.2709252,17.6728152 C46.2709252,17.6728152 46.2709252,17.6728152 46.2713952,17.672345 Z M42.0367447,13.3150123 C42.1453255,12.9460257 42.3906898,12.6414355 42.7281834,12.456707 C43.0661469,12.2719787 43.4553455,12.2301446 43.8248023,12.3382553 C44.1942589,12.4463661 44.4993193,12.6922004 44.6840476,13.030164 C44.8683059,13.3671876 44.9106101,13.7563861 44.8029694,14.1253728 L44.3000195,15.8410431 L41.5342647,15.0302127 L42.0367447,13.3150123 Z M39.099423,33.5857754 C38.8803812,34.3331496 38.093523,34.7632423 37.3442687,34.5432605 L37.3193562,34.5362097 C37.3188861,34.5362097 37.3188861,34.5362097 37.3188861,34.5357397 L37.2916234,34.528219 C36.5442492,34.3091773 36.1141565,33.5227892 36.3331982,32.7749449 L40.8573975,17.339552 L43.6231523,18.1503826 L39.099423,33.5857754 Z" id="Shape" fill="#1CD585" fill-rule="nonzero"></path>
                            <path d="M22.3488394,18.0526129 C22.5025447,18.577655 22.9824625,18.9179688 23.502804,18.9179688 C23.6151452,18.9179688 23.7288965,18.9019871 23.8417077,18.8690839 L28.9356036,17.3762157 C29.573457,17.189137 29.9386832,16.5207307 29.7520747,15.8828774 C29.564996,15.245024 28.8961197,14.8797977 28.2587364,15.0668764 L23.1648404,16.5597446 C22.5274573,16.7463531 22.1617609,17.4152295 22.3488394,18.0526129 Z" id="Path" fill="#FFFFFF"></path>
                            <path d="M7.45212013,22.4188765 C7.26504149,21.780553 6.59616504,21.4157968 5.95925188,21.6024054 L0.865355909,23.0952737 C0.227502593,23.2823522 -0.137723647,23.9507585 0.0488848548,24.5886119 C0.202590149,25.113184 0.682977797,25.4539678 1.2033195,25.4539678 C1.31519067,25.4539678 1.42941193,25.4379863 1.54222313,25.405083 L6.6361191,23.9117447 C7.27350227,23.7251361 7.63919865,23.0567298 7.45212013,22.4188765 Z" id="Path" fill="#FFFFFF"></path>
                            <path d="M1.79980871,14.4450046 L6.45703122,16.9912474 C6.64034949,17.0913673 6.83823911,17.1393121 7.03330851,17.1393121 C7.45917074,17.1393121 7.87140165,16.9127496 8.08997345,16.5127398 C8.40866504,15.9298819 8.19479377,15.1984894 7.61146587,14.8797977 L2.95424336,12.3335549 C2.37091546,12.0148632 1.63999284,12.2292045 1.32083111,12.8120623 C1.00213952,13.3953902 1.21648081,14.1263129 1.79980871,14.4450046 Z" id="Path" fill="#FFFFFF"></path>
                            <path d="M23.3439283,23.4802418 C22.7610704,23.1610801 22.0296778,23.3758915 21.7109861,23.9587494 C21.3922945,24.5420773 21.6066358,25.2729999 22.1894937,25.5916915 L26.8471862,28.1379344 C27.0300343,28.2385244 27.2279241,28.2859991 27.4229934,28.2859991 C27.8488557,28.2859991 28.2615566,28.0594366 28.4801284,27.6594269 C28.79882,27.076569 28.5844787,26.3451763 28.0016209,26.0264846 L23.3439283,23.4802418 Z" id="Path" fill="#FFFFFF"></path>
                            <path d="M11.17724,27.046016 C10.593912,26.7273243 9.86298953,26.9416656 9.54429782,27.5245234 L6.99805498,32.182216 C6.67936327,32.7650739 6.89370456,33.4964666 7.47703258,33.8151582 C7.66035072,33.9152781 7.85777033,33.9627529 8.05283973,33.9627529 C8.47870208,33.9627529 8.89140301,33.7366604 9.10997468,33.3366506 L11.6562176,28.6794282 C11.9749092,28.0961002 11.7605679,27.3651776 11.17724,27.046016 Z" id="Path" fill="#FFFFFF"></path>
                            <path d="M18.6237195,13.4254732 C18.8070378,13.5255933 19.0049274,13.5730679 19.1999968,13.5730679 C19.625389,13.5730679 20.03809,13.3469755 20.2566617,12.9469658 L22.8029046,8.28927324 C23.1215963,7.70641536 22.907255,6.97502272 22.323927,6.65633101 C21.7405991,6.33763942 21.0096764,6.55198071 20.6909849,7.13530861 L18.145212,11.7925311 C17.8260503,12.375389 18.0408616,13.1067816 18.6237195,13.4254732 Z" id="Path" fill="#FFFFFF"></path>
                            <path d="M11.2242447,11.9711489 C11.37795,12.495721 11.8578676,12.8365048 12.3786794,12.8365048 C12.4905504,12.8365048 12.6047718,12.8205232 12.717583,12.7876199 C13.3549663,12.6005414 13.7206627,11.932135 13.533584,11.2942816 L12.0407158,6.20085581 C11.8541073,5.56300249 11.1847608,5.19777613 10.5478475,5.38438476 C9.9099942,5.57146327 9.54476783,6.23986971 9.73137646,6.87772303 L11.2242447,11.9711489 Z" id="Path" fill="#FFFFFF"></path>
                            <path d="M22.3996046,41.5441358 C23.7307768,40.6364756 24.3926025,38.9414874 23.9155051,37.3137157 L18.2044379,17.8269905 C17.9172394,16.8478832 17.2662247,16.0394029 16.3712558,15.5500842 C15.4762869,15.0607657 14.4440644,14.9493646 13.4644871,15.2360932 L13.4395747,15.2436139 C13.4386347,15.2440839 13.4381645,15.2440839 13.4376945,15.2440839 C13.4372245,15.2445539 13.4362843,15.2445539 13.4358143,15.245024 L13.4099617,15.2525447 C11.3892311,15.8448035 10.2268056,17.9708247 10.8190644,19.9915554 L10.8265852,20.0164678 C10.8265852,20.0174079 10.8270552,20.018348 10.8270552,20.0192882 L11.6679688,22.8884531 C11.6679688,22.8884531 11.6679688,22.8889231 11.6684388,22.8889231 L16.5306017,39.4782806 C16.8173301,40.4573879 17.4683448,41.2658682 18.3633137,41.7556567 C18.9033973,42.050376 19.4923658,42.2064315 20.0902651,42.221943 L25.5545579,60.8654046 C25.7082631,61.3899767 26.1881807,61.7307605 26.7085224,61.7307605 C26.8208636,61.7307605 26.9346149,61.7147789 27.0474261,61.6818756 C27.6852795,61.4947971 28.0505057,60.8263907 27.8638972,60.1885373 L22.3996046,41.5441358 Z M13.1363946,19.3405407 C12.9135924,18.578595 13.3521461,17.7776355 14.1136216,17.5538933 L14.1150317,17.5534232 C14.8769774,17.3306212 15.6793471,17.7687046 15.9026193,18.5311203 L16.4050992,20.2453806 L13.6393445,21.0562111 L13.1363946,19.3405407 Z M18.839941,38.8014134 L14.3162117,23.3655504 L17.0824365,22.5551899 L21.6061658,37.9905829 C21.8252075,38.737957 21.3955849,39.5243452 20.6472705,39.7433869 L20.5932151,39.7593685 C20.2312791,39.8655991 19.8491312,39.824235 19.5177483,39.643267 C19.1868355,39.462299 18.9461716,39.1633494 18.839941,38.8014134 Z" id="Shape" fill="#1CD585" fill-rule="nonzero"></path>
                            <path d="M4.09974709,5.28567489 C4.28917593,5.74914098 4.76862354,6.05326121 5.26922323,6.02740861 C5.76700269,6.00155602 6.19991578,5.66547261 6.35503112,5.19354574 C6.51202677,4.71644833 6.34092966,4.17589471 5.94280021,3.87083444 C5.53761991,3.56107365 4.9669833,3.54227178 4.54253112,3.82476981 C4.07107427,4.13829098 3.88211556,4.76345312 4.09974709,5.28567489 Z" id="Path" fill="#FFFFFF"></path>
                            <path d="M52.0609602,4.87062364 C52.481652,5.15077159 53.0391274,5.13478994 53.4452477,4.83631027 C53.8504279,4.53924076 54.0243452,4.00009731 53.8791007,3.52158973 C53.7338563,3.0416721 53.2934226,2.69665778 52.7928228,2.66939513 C52.2762416,2.64119233 51.7841027,2.96223424 51.6026647,3.44638226 C51.4099455,3.96014325 51.5993744,4.56838372 52.0609602,4.87062364 Z" id="Path" fill="#FFFFFF"></path>
                            <path d="M29.5978994,36.8399086 C29.8808674,36.4154564 29.8615955,35.8448197 29.5513647,35.4396395 C29.2599358,35.0593718 28.748525,34.8849844 28.285529,35.0095468 C27.7990307,35.1406898 27.4408552,35.5721927 27.3976109,36.0732624 C27.3543666,36.5748023 27.6448554,37.0598905 28.1012707,37.267181 C28.6314834,37.5078449 29.2730971,37.3221764 29.5978994,36.8399086 Z" id="Path" fill="#FFFFFF"></path>
                            <path d="M2.31497987,35.2299988 C2.11850042,34.7580718 1.62871172,34.4544217 1.11824108,34.4915554 C0.619051448,34.527749 0.184728315,34.8793439 0.0474746846,35.3606717 C-0.0897789461,35.8429396 0.0930693029,36.3773827 0.503420025,36.6688116 C0.90907034,36.9569502 1.45620456,36.964941 1.8712558,36.6909037 C2.345533,36.3769127 2.52979129,35.7541007 2.31497987,35.2299988 Z" id="Path" fill="#FFFFFF"></path>
                        </g>
                    </g>
                </g>
            </g>
        </g>
    </g>
</svg>