<?xml version="1.0" encoding="UTF-8"?>
<svg width="36px" height="36px" viewBox="0 0 36 36" version="1.1" xmlns="http://www.w3.org/2000/svg" xmlns:xlink="http://www.w3.org/1999/xlink">
    <!-- Generator: Sketch 52.2 (67145) - http://www.bohemiancoding.com/sketch -->
    <title>Path</title>
    <desc>Created with Sketch.</desc>
    <g id="Page-1" stroke="none" stroke-width="1" fill="none" fill-rule="evenodd">
        <g id="Desktop-HD-Copy" transform="translate(-152.000000, -6300.000000)" fill="#FFFFFF">
            <g id="Group-2" transform="translate(127.000000, 1746.000000)">
                <g id="telephone-handle-silhouette" transform="translate(25.000000, 4554.000000)">
                    <path d="M35.922,27.8932836 C35.8201791,27.5864776 35.1723582,27.1345075 33.9789851,26.5384478 C33.6557015,26.3505672 33.1950448,26.0952537 32.5989851,25.7713433 C32.0023881,25.4474328 31.4608657,25.1489552 30.975403,24.8761791 C30.4889552,24.6034925 30.0332239,24.3393134 29.607403,24.084 C29.5393433,24.0328657 29.3262985,23.8839403 28.9683582,23.6362388 C28.6100597,23.3892537 28.3079104,23.2059403 28.0602985,23.0863881 C27.8132239,22.9675522 27.5701791,22.9077313 27.3315224,22.9077313 C26.9906866,22.9077313 26.5649552,23.1507761 26.053791,23.6362388 C25.5426269,24.1223284 25.0737313,24.6503284 24.6478209,25.2218507 C24.2218209,25.7931045 23.7700299,26.3211045 23.2932537,26.8069254 C22.8157612,27.2929254 22.4234328,27.5357015 22.1169851,27.5357015 C21.9631343,27.5357015 21.7713134,27.492806 21.5414328,27.4081791 C21.3116418,27.3230149 21.1368358,27.2500299 21.0168358,27.191194 C20.8979104,27.1311045 20.6938209,27.0121791 20.4038507,26.8326269 C20.1133433,26.6536119 19.951791,26.5555522 19.9177612,26.5384478 C17.5826866,25.2427164 15.5800299,23.7597313 13.9094328,22.0898507 C12.2393731,20.4189851 10.756209,18.4165075 9.46083582,16.0811642 C9.4438209,16.0470448 9.34558209,15.8850448 9.16674627,15.5954328 C8.98764179,15.3055522 8.86826866,15.1012836 8.80862687,14.9816418 C8.74898507,14.8624478 8.67653731,14.6876418 8.59146269,14.4575821 C8.50638806,14.2275224 8.46367164,14.0358806 8.46367164,13.8822985 C8.46367164,13.5756716 8.70662687,13.1834328 9.19244776,12.7061194 C9.6781791,12.2290746 10.2067164,11.777194 10.7775224,11.3513731 C11.3487761,10.9255522 11.8767761,10.4566567 12.3626866,9.94549254 C12.8484179,9.4340597 13.0912836,9.00814925 13.0912836,8.66731343 C13.0912836,8.42883582 13.0316418,8.18570149 12.9124478,7.93862687 C12.7931642,7.69101493 12.6099403,7.38886567 12.3626866,7.03074627 C12.1153433,6.67280597 11.9662388,6.4599403 11.9150149,6.39143284 C11.6596119,5.96561194 11.3957015,5.50970149 11.1226567,5.0238806 C10.8496119,4.53814925 10.5515821,3.99671642 10.2275821,3.40020896 C9.90385075,2.80397015 9.64835821,2.34358209 9.46065672,2.01976119 C8.86441791,0.826835821 8.41280597,0.178835821 8.10591045,0.0769253731 C7.98653731,0.0257910448 7.80743284,0 7.56904478,0 C7.10856716,0 6.50785075,0.0850746269 5.76644776,0.255761194 C5.02477612,0.426179104 4.44116418,0.604925373 4.01498507,0.792716418 C3.16271642,1.15047761 2.25940299,2.1901791 1.30477612,3.91146269 C0.435492537,5.51337313 0.000895522388,7.09889552 0.000895522388,8.66686567 C0.000895522388,9.12671642 0.0307164179,9.5741194 0.090358209,10.0091642 C0.15,10.4437612 0.256567164,10.9338806 0.410149254,11.4794328 C0.563462687,12.024806 0.687134328,12.4299403 0.780626866,12.6937612 C0.874208955,12.9577612 1.04892537,13.4306866 1.30468657,14.1127164 C1.56008955,14.7945672 1.71367164,15.2119701 1.76480597,15.3653731 C2.36131343,17.0358806 3.06868657,18.527194 3.88674627,19.8397612 C5.23271642,22.0214328 7.06952239,24.2760896 9.39608955,26.6028358 C11.7227463,28.929403 13.9769552,30.7661194 16.158806,32.1126269 C17.471194,32.930597 18.9630448,33.6378806 20.6332836,34.2348358 C20.7867761,34.2857015 21.2041791,34.4389254 21.8857612,34.6952239 C22.5676119,34.950806 23.0407164,35.1255224 23.3047164,35.2192836 C23.568806,35.3131343 23.9740299,35.4368955 24.5189552,35.5904776 C25.0650448,35.7440597 25.5547164,35.8506269 25.9893134,35.9107164 C26.4241791,35.9695522 26.8716716,35.9999104 27.3316119,35.9999104 C28.8994925,35.9999104 30.4851045,35.5650448 32.0872836,34.6958507 C33.8083881,33.7415821 34.8478209,32.8380896 35.2057612,31.985194 C35.394,31.5594627 35.5722985,30.9756716 35.7427164,30.234 C35.9136716,29.4926866 35.9985672,28.8920597 35.9985672,28.4316716 C35.9991045,28.1922985 35.973403,28.0136418 35.922,27.8932836 Z" id="Path"></path>
                </g>
            </g>
        </g>
    </g>
</svg>