<?xml version="1.0" encoding="UTF-8"?>
<svg width="58px" height="59px" viewBox="0 0 58 59" version="1.1" xmlns="http://www.w3.org/2000/svg" xmlns:xlink="http://www.w3.org/1999/xlink">
    <!-- Generator: Sketch 52.2 (67145) - http://www.bohemiancoding.com/sketch -->
    <title>balloons</title>
    <desc>Created with Sketch.</desc>
    <g id="Page-1" stroke="none" stroke-width="1" fill="none" fill-rule="evenodd">
        <g id="Desktop-HD-Copy" transform="translate(-235.000000, -1451.000000)">
            <g id="Group-11" transform="translate(150.000000, 1398.000000)">
                <g id="Group-8">
                    <g id="Group-9" transform="translate(80.000000, 50.000000)">
                        <g id="balloons" transform="translate(5.000000, 3.000000)">
                            <path d="M56.2700495,16.3219214 C54.4499227,12.7933787 51.3641862,10.1845451 47.5812654,8.97681 C45.6615408,8.36352098 43.6915687,8.14817445 41.7126238,8.331219 C39.5560179,3.43073951 34.6541925,0 28.9654549,0 C23.2767172,0 18.3748917,3.43073951 16.2182859,8.33166773 C14.2375464,8.14772584 12.2662283,8.36352098 10.3447091,8.97681 C2.53660278,11.4703435 -1.78737624,19.8513614 0.705708511,27.6594678 C1.91344366,31.44194 4.52227723,34.5276763 8.0508199,36.3482519 C10.1894802,37.4514543 12.5107364,38.0100093 14.8499381,38.0100093 C14.9908107,38.0100093 15.1316832,38.0059715 15.2725556,38.0019338 L15.7014543,41.3106436 C15.7956683,42.0378867 16.5686727,42.5040223 17.2573329,42.2442605 L18.8652537,41.6377011 C20.2874381,44.8921256 19.1828899,48.9855044 16.2810952,50.8347927 C15.7907333,51.1474939 15.6072401,51.7984684 15.86431,52.3206838 C16.1648979,52.9303837 16.9504642,53.1520111 17.5247216,52.785922 C21.393781,50.3197555 22.8590347,45.1128558 21.0344214,40.8189356 L22.3807859,40.3110767 C22.7114326,40.1863553 22.9671565,39.9171721 23.0743812,39.5802445 C23.1820545,39.2433168 23.1295638,38.8754332 22.9317141,38.5824722 L21.4929301,36.4456064 C23.1259747,35.6353652 24.5907797,34.5335087 25.8249846,33.1840038 L25.0990872,36.2571782 C25.0178837,36.6012841 25.0986386,36.9637841 25.3180229,37.2410427 C25.5374071,37.5183014 25.871643,37.6802599 26.2251702,37.6802599 L27.8084158,37.6802599 L27.8084158,57.6469214 C27.8084158,58.2772586 28.3351176,58.8039604 28.9654549,58.8039604 C29.5962407,58.8039604 30.1224939,58.2777073 30.1224939,57.6469214 L30.1224939,37.6802599 L31.7012531,37.6802599 C32.0547803,37.6802599 32.389016,37.5183014 32.6084004,37.2410427 C32.8282333,36.9637841 32.9085396,36.6012841 32.827336,36.2571782 L32.1014387,33.183555 C33.0534499,34.2243966 34.1436417,35.1167388 35.3410582,35.8430847 L33.4962562,38.5824722 C33.0781249,39.2024907 33.3688428,40.0468286 34.0534653,40.3133199 C34.4034035,40.449706 34.7560335,40.5784653 35.1068688,40.7108138 C35.2450495,40.7628558 35.3827816,40.8148979 35.5209623,40.8673886 C35.2284499,43.1339109 35.7645731,45.4085087 37.0503713,47.3188119 C38.4241028,49.3592203 40.5066832,50.7630105 42.914078,51.271318 C43.5435179,51.4045638 44.1760984,50.978357 44.2913985,50.3457766 C44.4017636,49.7378713 43.9961942,49.134901 43.3918781,49.0074876 C39.9176207,48.2739635 37.5864945,45.1653465 37.7672958,41.7148669 L39.1706374,42.2442605 C39.858849,42.5040223 40.632302,42.0383355 40.726516,41.3106436 L41.1711169,37.8816986 C41.799211,37.9624536 42.4268564,38.004177 43.0500154,38.004177 C49.3453125,38.004177 55.2058787,33.9695699 57.2207148,27.6594678 C58.4284499,23.8769956 58.0910737,19.8504642 56.2700495,16.3219214 Z M28.9654549,2.3136293 C33.9695699,2.3136293 38.2441986,5.49761763 39.8700649,9.94542079 C40.1616801,10.8382117 40.3985613,11.7269648 40.499505,12.6637222 C40.5977568,13.5749071 40.5807085,14.493719 40.4851485,15.4044554 C40.4295173,15.935195 40.3483138,16.4632426 40.2464728,16.9872525 C39.7139387,19.707797 38.5564511,22.6930384 37.0055074,25.2076578 C34.88569,28.6442296 32.3239635,30.7716739 29.8533107,31.1893564 C29.2597618,31.2880569 28.6621752,31.2871596 28.0686262,31.1880105 C25.6006653,30.7662902 23.0425278,28.6401919 20.9254022,25.2076578 C18.8997989,21.9231744 17.5449103,17.8356281 17.3775681,14.5843441 C17.3017481,13.0827506 17.4982519,11.5793626 17.9863707,10.1558323 C19.5534653,5.59811268 23.8828279,2.3136293 28.9654549,2.3136293 Z M17.5736232,37.7551826 C18.1550588,37.6475093 18.7324566,37.5034962 19.2968441,37.3271813 L20.1959158,38.6623298 L17.8082612,39.5631961 L17.5736232,37.7551826 Z M19.3892636,34.8457612 C18.8594214,35.0238707 18.3331683,35.2136447 17.788521,35.3441986 C17.2465655,35.4738553 16.6956374,35.5613397 16.1424659,35.6272896 C13.737763,35.8776299 11.3101794,35.4262995 9.1118503,34.2916925 C6.13244118,32.7546565 3.92962565,30.1494121 2.90987011,26.9555539 C0.804857616,20.3628094 4.45587871,13.2864326 11.0486232,11.1809715 C12.2985303,10.7816832 13.5731127,10.5815903 14.8566677,10.5815903 C15.0531714,10.5815903 15.2496752,10.5865253 15.4457302,10.5959467 C15.0868193,12.0576114 14.9795946,13.5704208 15.0895111,15.0702197 C15.3501702,18.6561881 16.781776,22.8967203 18.9558787,26.4221226 C20.4368347,28.8232364 22.1093595,30.6617574 23.8805847,31.8748762 C22.6199103,33.1790687 21.0936417,34.1889543 19.3892636,34.8457612 Z M27.6868347,35.366182 L28.1197711,33.5334932 C28.6796721,33.595854 29.2467513,33.595854 29.8066523,33.5339418 L30.2391398,35.366182 L27.6868347,35.366182 Z M38.8987624,37.408385 L38.6197091,39.5631961 L36.2316058,38.6623298 L37.4236386,36.8924505 C37.9068224,37.0885055 38.3980817,37.2625773 38.8987624,37.408385 Z M55.0161046,26.9555539 C53.0304301,33.1745823 46.6211788,36.7744585 40.3671565,35.3962407 C39.3761139,35.1777537 38.4267946,34.8340965 37.5120204,34.3971226 C36.219044,33.7622989 35.0494431,32.9125773 34.0476331,31.8766708 C35.8197555,30.663552 37.4931776,28.8245823 38.9750309,26.4221226 C40.7471535,23.5485922 42.0253248,20.1999536 42.578945,17.1178063 C43.2577351,16.8311262 43.9719678,16.6844214 44.7050434,16.6844214 C45.3439048,16.6844214 45.8620823,16.1662438 45.8620823,15.5273824 C45.8620823,14.888521 45.3439048,14.3707921 44.7050434,14.3707921 C44.0814356,14.3707921 43.4681466,14.446612 42.8696628,14.5928682 C42.9288831,13.2491955 42.8046101,11.9023824 42.4829362,10.5954981 C43.9638923,10.5250619 45.4372216,10.7211169 46.8778001,11.1809715 C50.0716584,12.2007271 52.6769029,14.4035427 54.2139387,17.3829517 C55.7509747,20.3623608 56.0363088,23.7616955 55.0161046,26.9555539 Z" id="Shape" fill="#1CD585" fill-rule="nonzero"></path>
                            <path d="M28.9654549,6.18403465 C31.9300588,6.18403465 34.5900371,7.84040842 35.9072401,10.5075649 C36.1086788,10.9153774 36.5191832,11.1522586 36.9453899,11.1522586 C37.1172184,11.1522586 37.2921875,11.1136757 37.4568378,11.0324722 C38.0297494,10.7493812 38.264836,10.0557859 37.981745,9.48287435 C36.2719833,6.0207302 32.8170173,3.86995663 28.9654549,3.86995663 C28.3265935,3.86995663 27.8084158,4.38768564 27.8084158,5.02699564 C27.8084158,5.66585703 28.3265935,6.18403465 28.9654549,6.18403465 Z" id="Path" fill="#FEFFFF"></path>
                            <path d="M37.6946163,13.4192296 C37.1472772,13.5300434 36.745297,14.0302753 36.7636912,14.5906249 C36.7820853,15.1478342 37.2154703,15.6278774 37.7690903,15.7001083 C38.2554147,15.7638149 38.7507117,15.5000154 38.9606744,15.0558633 C39.1194926,14.7207302 39.0970606,14.3200959 38.9211942,13.9961788 C38.6838645,13.5596535 38.1845297,13.3200804 37.6946163,13.4192296 Z" id="Path" fill="#FEFFFF"></path>
                        </g>
                    </g>
                </g>
            </g>
        </g>
    </g>
</svg>