<?xml version="1.0" encoding="UTF-8"?>
<svg width="73px" height="137px" viewBox="0 0 73 137" version="1.1" xmlns="http://www.w3.org/2000/svg" xmlns:xlink="http://www.w3.org/1999/xlink">
    <!-- Generator: Sketch 52.2 (67145) - http://www.bohemiancoding.com/sketch -->
    <title>Group</title>
    <desc>Created with Sketch.</desc>
    <g id="Page-1" stroke="none" stroke-width="1" fill="none" fill-rule="evenodd">
        <g id="Desktop-HD-Copy" transform="translate(-931.000000, -973.000000)" fill="#141C32">
            <g id="Group-3" transform="translate(390.000000, 922.000000)">
                <g id="Group" transform="translate(541.000000, 51.000000)">
                    <path d="M53.2643138,49.268617 C53.2643138,49.268617 47.8113108,42.3437234 51.3400862,32.7325532 C54.8627138,23.1153191 63.1006215,19.4648936 63.1006215,19.4648936 C63.1006215,19.4648936 69.2544615,27.7117021 65.8117538,37.086383 C62.3874892,46.4610638 53.2643138,49.268617 53.2643138,49.268617 Z" id="Path"></path>
                    <path d="M38.1471385,54.186383 C38.1471385,54.186383 28.6243631,53.4284043 23.1652123,45.0360638 C17.7122092,36.6437234 21.8803446,27.2569149 21.8803446,27.2569149 C21.8803446,27.2569149 30.7207262,29.0275532 36.3274215,37.6381915 C41.9218215,46.2548936 38.1471385,54.186383 38.1471385,54.186383 Z" id="Path"></path>
                    <path d="M37.1819508,65.2771277 C41.5898462,74.5365957 36.8007938,81.9223404 36.8007938,81.9223404 C36.8007938,81.9223404 27.4501538,79.9455319 23.1529169,70.928617 C18.8741231,61.8995745 24.2410585,53.1312766 24.2410585,53.1312766 C24.2410585,53.1312766 32.7740554,56.0237234 37.1819508,65.2771277 Z" id="Path"></path>
                    <path d="M15.65888,72.7417021 C15.65888,72.7417021 23.8721969,76.4103191 27.3825292,86.0457447 C30.8867138,95.6751064 25.4152677,102.575745 25.4152677,102.575745 C25.4152677,102.575745 16.3105354,99.7378723 12.8924185,90.3571277 C9.47430154,80.976383 15.65888,72.7417021 15.65888,72.7417021 Z" id="Path"></path>
                    <path d="M8.79805538,123.380745 C8.79805538,123.380745 0.898270769,118.080957 0.363421538,108.124149 C-0.16528,98.1673404 8.17099077,92.0368085 8.17099077,92.0368085 C8.17099077,92.0368085 14.9580431,97.8884043 15.5113354,108.105957 C16.05848,118.323511 8.79805538,123.380745 8.79805538,123.380745 Z" id="Path"></path>
                    <path d="M41.1103262,30.7375532 C41.1103262,30.7375532 32.6941354,27.9603191 30.2227631,18.0338298 C27.7452431,8.10734043 32.5404431,0.55787234 32.5404431,0.55787234 C32.5404431,0.55787234 42.3029785,4.0506383 44.7128738,13.7406383 C47.1227692,23.4124468 41.1103262,30.7375532 41.1103262,30.7375532 Z" id="Path"></path>
                    <path d="M53.2704615,70.3768085 C53.2704615,70.3768085 50.1412862,62.1724468 56.3750462,54.0165957 C62.6272492,45.8546809 71.5844369,44.7571277 71.5844369,44.7571277 C71.5844369,44.7571277 75.0087015,54.435 68.9163385,62.3907447 C62.8239754,70.3525532 53.2704615,70.3768085 53.2704615,70.3768085 Z" id="Path"></path>
                    <path d="M46.2866831,92.0246809 C46.2866831,92.0246809 45.0817354,83.3412766 53.0061108,76.7438298 C60.9366338,70.1585106 69.9122646,71.0559574 69.9122646,71.0559574 C69.9122646,71.0559574 71.0680308,81.2492553 63.3403815,87.6647872 C55.6127323,94.0803191 46.2866831,92.0246809 46.2866831,92.0246809 Z" id="Path"></path>
                    <path d="M35.6450277,109.925106 C35.6450277,109.925106 37.15736,101.284149 46.7354646,97.3729787 C56.3258646,93.4557447 64.5945108,96.9909574 64.5945108,96.9909574 C64.5945108,96.9909574 62.5657723,107.044787 53.2335754,110.858936 C43.8952308,114.679149 35.6450277,109.925106 35.6450277,109.925106 Z" id="Path"></path>
                    <path d="M30.9973723,117.359362 C40.9812246,114.612447 48.7826462,119.087553 48.7826462,119.087553 C48.7826462,119.087553 45.5612554,128.82 35.8294585,131.524468 C26.0976615,134.198617 18.4868185,128.504681 18.4868185,128.504681 C18.4868185,128.504681 21.0196677,120.11234 30.9973723,117.359362 Z" id="Path"></path>
                    <path d="M40.0775138,36.6558511 L44.5284431,34.5031915 C44.7620554,34.982234 67.5945846,82.8197872 3.43112,136.909149 L0.228172308,133.204149 C61.2993477,81.7040426 40.9750769,38.4628723 40.0775138,36.6558511 Z" id="Path"></path>
                </g>
            </g>
        </g>
    </g>
</svg>