<?xml version="1.0" encoding="UTF-8"?>
<svg width="16px" height="16px" viewBox="0 0 16 16" version="1.1" xmlns="http://www.w3.org/2000/svg" xmlns:xlink="http://www.w3.org/1999/xlink">
    <!-- Generator: Sketch 52.2 (67145) - http://www.bohemiancoding.com/sketch -->
    <title>VK_Monochrome_Logo</title>
    <desc>Created with Sketch.</desc>
    <g id="Page-1" stroke="none" stroke-width="1" fill="none" fill-rule="evenodd">
        <g id="Desktop-HD-Copy" transform="translate(-997.000000, -32.000000)" fill="#7382a9">
            <g id="VK_Monochrome_Logo" transform="translate(997.000000, 32.000000)">
                <path d="M10.4615385,0.100699301 L5.59440559,0.100699301 C1.15244755,0.100699301 0.100699301,1.15244755 0.100699301,5.59440559 L0.100699301,10.4615385 C0.100699301,14.9034965 1.15244755,15.9552448 5.59440559,15.9552448 L10.4615385,15.9552448 C14.9034965,15.9552448 15.9552448,14.9034965 15.9552448,10.4615385 L15.9552448,5.59440559 C15.9552448,1.15244755 14.8923077,0.100699301 10.4615385,0.100699301 Z M12.9006993,11.4125874 L11.7482517,11.4125874 C11.3118881,11.4125874 11.1776224,11.0657343 10.3944056,10.2713287 C9.71188811,9.61118881 9.40979021,9.52167832 9.24195804,9.52167832 C9.00699301,9.52167832 8.93986014,9.58881119 8.93986014,9.91328671 L8.93986014,10.9538462 C8.93986014,11.2335664 8.85034965,11.4013986 8.11188811,11.4013986 C6.89230769,11.4013986 5.53846154,10.6629371 4.58741259,9.28671329 C3.15524476,7.27272727 2.76363636,5.76223776 2.76363636,5.44895105 C2.76363636,5.28111888 2.83076923,5.12447552 3.15524476,5.12447552 L4.30769231,5.12447552 C4.5986014,5.12447552 4.71048951,5.25874126 4.82237762,5.57202797 C5.39300699,7.21678322 6.34405594,8.66013986 6.73566434,8.66013986 C6.88111888,8.66013986 6.94825175,8.59300699 6.94825175,8.22377622 L6.94825175,6.52307692 C6.9034965,5.73986014 6.48951049,5.67272727 6.48951049,5.39300699 C6.48951049,5.25874126 6.6013986,5.12447552 6.78041958,5.12447552 L8.59300699,5.12447552 C8.83916084,5.12447552 8.92867133,5.25874126 8.92867133,5.54965035 L8.92867133,7.84335664 C8.92867133,8.08951049 9.04055944,8.17902098 9.10769231,8.17902098 C9.25314685,8.17902098 9.37622378,8.08951049 9.64475524,7.82097902 C10.4727273,6.89230769 11.0657343,5.46013986 11.0657343,5.46013986 C11.1440559,5.29230769 11.2783217,5.13566434 11.5692308,5.13566434 L12.7216783,5.13566434 C13.0685315,5.13566434 13.1468531,5.31468531 13.0685315,5.56083916 C12.9230769,6.23216783 11.5132867,8.22377622 11.5132867,8.22377622 C11.3902098,8.42517483 11.3454545,8.51468531 11.5132867,8.73846154 C11.6363636,8.90629371 12.0391608,9.25314685 12.3076923,9.56643357 C12.8,10.1258741 13.1804196,10.5958042 13.2811189,10.9202797 C13.393007,11.2447552 13.2251748,11.4125874 12.9006993,11.4125874 Z" id="Shape"></path>
            </g>
        </g>
    </g>
</svg>