<?xml version="1.0" encoding="UTF-8"?>
<svg width="46px" height="65px" viewBox="0 0 46 65" version="1.1" xmlns="http://www.w3.org/2000/svg" xmlns:xlink="http://www.w3.org/1999/xlink">
    <!-- Generator: Sketch 52.2 (67145) - http://www.bohemiancoding.com/sketch -->
    <title>dress</title>
    <desc>Created with Sketch.</desc>
    <g id="Page-1" stroke="none" stroke-width="1" fill="none" fill-rule="evenodd">
        <g id="Desktop-HD-Copy" transform="translate(-469.000000, -1450.000000)">
            <g id="Group-11" transform="translate(150.000000, 1398.000000)">
                <g id="Group-7" transform="translate(228.000000, 0.000000)">
                    <g id="Group-9" transform="translate(80.000000, 50.000000)">
                        <g id="dress" transform="translate(11.000000, 2.000000)">
                            <path d="M45.927234,57.0767691 C43.701683,48.3889032 40.2747503,40.8539084 36.6458549,32.8758824 C35.1360838,29.5568613 33.5792872,26.1299286 32.0799114,22.5490487 C34.353478,19.8626464 35.0336175,16.2802815 34.0421187,12.1261837 C33.41841,9.51254732 32.3095946,7.41124311 31.8621083,6.62863726 L31.8621083,1.26721763 C31.8621083,0.567277829 31.2948304,-2.84217094e-14 30.5948907,-2.84217094e-14 C29.8949509,-2.84217094e-14 29.3276731,0.567277829 29.3276731,1.26721763 L29.3276731,6.97118202 C29.3167829,10.4728607 26.4759384,13.3221203 22.99505,13.3221203 C19.477531,13.3221203 16.6154012,10.4728607 16.6154012,6.97019194 L16.6154012,1.26721763 C16.6154012,0.567277829 16.0481233,-2.84217094e-14 15.3481836,-2.84217094e-14 C14.6482438,-2.84217094e-14 14.080966,0.567277829 14.080966,1.26721763 L14.080966,6.62368712 C13.6334797,7.40678808 12.5246643,9.50908224 11.9004605,12.1237087 C10.9069817,16.2886966 11.5925663,19.8789816 13.8785081,22.567859 C12.3816072,26.1413136 10.8277806,29.5623063 9.32048464,32.8753875 C5.69208423,40.8534134 2.26515152,48.3889032 0.039600551,57.0767691 C-0.000990013774,57.2361614 -0.0103951383,57.4014936 0.0118801653,57.5648459 C0.323734567,59.8176222 2.90123533,61.6511277 7.67260675,63.0133866 C11.8935305,64.2182335 17.3311811,64.8815427 22.9831698,64.8815427 C28.6356534,64.8815427 34.073304,64.2182335 38.2942278,63.0133866 C43.0655992,61.6511277 45.6431001,59.8181173 45.9549543,57.5648459 C45.9777247,57.4019886 45.9683196,57.2361614 45.927234,57.0767691 Z M14.951683,10.7995652 C16.389183,13.7879219 19.4542656,15.8565556 22.99505,15.8565556 C26.5115789,15.8565556 29.5618113,13.7829718 30.9938662,10.7901602 C32.0343707,13.6483299 32.8060864,17.8895489 30.042463,21.0328426 L15.9006112,21.0328426 C13.150848,17.9024191 13.9161286,13.6626851 14.951683,10.7995652 Z M21.704072,62.3337422 C17.4470128,62.2560262 13.3839963,61.7907197 9.98676398,60.9942536 C11.9964919,51.6237732 14.6937844,42.8255209 17.5465092,33.5273115 C18.4756371,30.4988593 19.5191116,27.098162 20.5655561,23.5672778 L21.704072,23.5672778 L21.704072,62.3337422 Z M2.57304586,57.4005036 C4.74563106,49.0556775 8.08989759,41.7033402 11.6277117,33.9248021 C13.1399578,30.5998407 14.7002195,27.1689481 16.2090005,23.5672778 L17.9212293,23.5672778 C16.9505209,26.8293733 15.9877324,29.9682119 15.1229554,32.7852961 C12.2677557,42.0914256 9.56699814,50.9005682 7.53796488,60.3254993 C4.11944725,59.2364842 2.84084456,58.0633178 2.57304586,57.4005036 Z M38.4303547,60.3245092 C37.2893638,55.0229855 35.8424587,49.4744534 33.7866951,42.5032713 C33.5886924,41.832042 32.8838025,41.4479167 32.2125732,41.6464144 C31.5413439,41.8444172 31.1577135,42.548812 31.3557163,43.2200413 C33.4109848,50.1882532 34.8504649,55.7150051 35.9820506,60.9942536 C32.5783833,61.7922047 28.5049716,62.2580062 24.2385073,62.3347323 L24.2385073,23.5672778 L25.4007833,23.5672778 C26.4462379,27.096677 27.4902075,30.4988593 28.4193354,33.5283014 C28.6247633,34.1970558 29.333118,34.573756 30.0028625,34.3683282 C30.6716167,34.1629003 31.0478219,33.4540505 30.8423941,32.7848012 C29.9781121,29.9677169 29.0148287,26.8278882 28.0446152,23.5672778 L29.7568439,23.5672778 C31.2656249,27.1689481 32.8263817,30.5998407 34.3386277,33.925297 C37.8764419,41.7038352 41.2207085,49.0556775 43.3932938,57.4005036 C43.12599,58.0633178 41.8478822,59.2359892 38.4303547,60.3245092 Z" id="Shape" fill="#1CD585" fill-rule="nonzero"></path>
                            <path d="M32.3051395,37.5032068 C32.1016917,37.0156249 31.6007447,36.6948605 31.0715822,36.7235709 C30.5567751,36.7512913 30.1023588,37.0928461 29.9350464,37.5804279 C29.7622891,38.0853349 29.9350464,38.6639979 30.3577824,38.9902075 C30.7730932,39.310477 31.3567062,39.3411674 31.8027075,39.0639635 C32.3214747,38.741714 32.5407627,38.0689996 32.3051395,37.5032068 Z" id="Path" fill="#FFFFFF"></path>
                        </g>
                    </g>
                </g>
            </g>
        </g>
    </g>
</svg>