<?xml version="1.0" encoding="UTF-8"?>
<svg width="64px" height="61px" viewBox="0 0 64 61" version="1.1" xmlns="http://www.w3.org/2000/svg" xmlns:xlink="http://www.w3.org/1999/xlink">
    <!-- Generator: Sketch 52.2 (67145) - http://www.bohemiancoding.com/sketch -->
    <title>medal</title>
    <desc>Created with Sketch.</desc>
    <g id="Page-1" stroke="none" stroke-width="1" fill="none" fill-rule="evenodd">
        <g id="Desktop-HD-Copy" transform="translate(-688.000000, -963.000000)" fill-rule="nonzero">
            <g id="Group-3" transform="translate(390.000000, 922.000000)">
                <g id="medal" transform="translate(298.000000, 41.000000)">
                    <path d="M63.5995,10.100625 L53.917,0.418625 C53.6605,0.16225 53.31275,0.018125 52.95,0.018125 L11.05,0.018125 C10.687375,0.018125 10.339375,0.16225 10.083,0.418625 L0.400625,10.100625 C-0.05775,10.559125 -0.131375,11.276375 0.2245,11.818375 L20.478375,42.660875 C19.6695,44.337 19.215875,46.215625 19.215875,48.198125 C19.215875,55.247125 24.95075,60.982 31.999625,60.982 C39.0485,60.982 44.783375,55.247 44.783375,48.198125 C44.783375,46.215875 44.329875,44.337625 43.52125,42.661625 L63.77575,11.818375 C64.1315,11.276375 64.057875,10.559125 63.5995,10.100625 Z M11.616375,2.75325 L52.3835,2.75325 L59.330875,9.70075 L49.64925,9.70075 C49.639625,9.70075 49.630125,9.7005 49.6205,9.70075 L14.379625,9.70075 C14.369625,9.7005 14.359625,9.70075 14.349875,9.70075 L4.669125,9.70075 L11.616375,2.75325 Z M47.113125,12.435625 L32.021125,35.414625 C32.014,35.414625 32.006875,35.414375 31.999625,35.414375 C31.992625,35.414375 31.985875,35.414625 31.979,35.414625 L16.88675,12.435625 L47.113125,12.435625 Z M3.902,12.435625 L13.614625,12.435625 L28.948875,35.783 C26.2115,36.455875 23.81825,38.01225 22.089625,40.13175 L3.902,12.435625 Z M31.999625,58.247125 C26.45875,58.247125 21.951,53.73925 21.951,48.19825 C21.951,42.65725 26.458875,38.149625 31.999625,38.149625 C37.5405,38.149625 42.048375,42.6575 42.048375,48.198375 C42.048375,53.73925 37.5405,58.247125 31.999625,58.247125 Z M41.91,40.1325 C40.181625,38.012875 37.78825,36.456375 35.051,35.783375 L50.38525,12.435625 L60.097875,12.435625 L41.91,40.1325 Z" id="Shape" fill="#1CD585"></path>
                    <polygon id="Star" fill="#FFFFFE" points="32 51.5 29.0610737 53.045085 29.6223587 49.7725425 27.2447174 47.454915 30.5305369 46.9774575 32 44 33.4694631 46.9774575 36.7552826 47.454915 34.3776413 49.7725425 34.9389263 53.045085"></polygon>
                </g>
            </g>
        </g>
    </g>
</svg>